<svg width="57" height="30" viewBox="0 0 57 30" fill="none" xmlns="http://www.w3.org/2000/svg">
<path d="M4.26197 7.59481H1.37266V6.42869H4.26197C4.82151 6.42869 5.27459 6.33956 5.62121 6.1613C5.96783 5.98304 6.22037 5.73545 6.37882 5.41855C6.54223 5.10164 6.62393 4.74016 6.62393 4.33413C6.62393 3.96275 6.54223 3.61365 6.37882 3.28684C6.22037 2.96003 5.96783 2.69759 5.62121 2.49952C5.27459 2.2965 4.82151 2.195 4.26197 2.195H1.7069V11.8359H0.273385V1.02144H4.26197C5.079 1.02144 5.76976 1.16257 6.33425 1.44481C6.89875 1.72706 7.32707 2.11824 7.61922 2.61836C7.91137 3.11353 8.05744 3.6805 8.05744 4.31927C8.05744 5.01251 7.91137 5.60423 7.61922 6.09445C7.32707 6.58467 6.89875 6.95852 6.33425 7.21601C5.76976 7.46855 5.079 7.59481 4.26197 7.59481ZM12.8928 11.9845C12.3332 11.9845 11.8257 11.8904 11.3701 11.7022C10.9195 11.5091 10.5308 11.2393 10.204 10.8926C9.88214 10.546 9.63456 10.135 9.46125 9.65967C9.28794 9.18431 9.20128 8.66438 9.20128 8.09989V7.78793C9.20128 7.13431 9.29784 6.55248 9.49096 6.04246C9.68407 5.52748 9.94651 5.09173 10.2783 4.73521C10.61 4.37869 10.9864 4.10882 11.4073 3.92561C11.8282 3.7424 12.2639 3.65079 12.7145 3.65079C13.2889 3.65079 13.7841 3.74983 14.2 3.94789C14.6209 4.14596 14.9651 4.42326 15.2324 4.77978C15.4998 5.13135 15.6979 5.54729 15.8266 6.0276C15.9554 6.50297 16.0198 7.02289 16.0198 7.58739V8.20387H10.0183V7.08231H14.6457V6.97833C14.6259 6.62181 14.5516 6.27519 14.4228 5.93847C14.299 5.60176 14.101 5.32446 13.8286 5.10659C13.5563 4.88872 13.1849 4.77978 12.7145 4.77978C12.4026 4.77978 12.1154 4.84663 11.8529 4.98032C11.5905 5.10907 11.3652 5.30218 11.177 5.55967C10.9888 5.81716 10.8428 6.13159 10.7388 6.50297C10.6348 6.87434 10.5828 7.30266 10.5828 7.78793V8.09989C10.5828 8.48117 10.6348 8.84016 10.7388 9.17688C10.8477 9.50864 11.0037 9.80079 11.2067 10.0533C11.4147 10.3059 11.6647 10.5039 11.9569 10.6475C12.254 10.7911 12.5907 10.8629 12.967 10.8629C13.4523 10.8629 13.8633 10.7639 14.2 10.5658C14.5367 10.3678 14.8314 10.1028 15.0839 9.77108L15.9158 10.4321C15.7425 10.6946 15.5221 10.9446 15.2547 11.1823C14.9873 11.42 14.658 11.6131 14.2669 11.7617C13.8806 11.9102 13.4226 11.9845 12.8928 11.9845ZM20.9888 3.79934V4.85405H16.6437V3.79934H20.9888ZM18.1143 1.8459H19.4884V9.84536C19.4884 10.1177 19.5305 10.3232 19.6147 10.4618C19.6989 10.6005 19.8078 10.6921 19.9415 10.7367C20.0752 10.7812 20.2188 10.8035 20.3723 10.8035C20.4862 10.8035 20.605 10.7936 20.7288 10.7738C20.8576 10.749 20.9541 10.7292 21.0185 10.7144L21.0259 11.8359C20.917 11.8706 20.7734 11.9028 20.5951 11.9325C20.4218 11.9672 20.2114 11.9845 19.9638 11.9845C19.6271 11.9845 19.3176 11.9176 19.0353 11.7839C18.7531 11.6502 18.5278 11.4274 18.3594 11.1155C18.196 10.7986 18.1143 10.3727 18.1143 9.83793V1.8459ZM28.5723 9.1026C28.5723 8.85007 28.5327 8.62724 28.4535 8.43413C28.3792 8.23606 28.2455 8.0578 28.0524 7.89934C27.8642 7.74089 27.6018 7.58986 27.2651 7.44626C26.9333 7.30266 26.5124 7.15659 26.0024 7.00804C25.4676 6.84958 24.9848 6.6738 24.554 6.48068C24.1232 6.28262 23.7543 6.05731 23.4473 5.80478C23.1403 5.55224 22.9051 5.26257 22.7417 4.93576C22.5783 4.60894 22.4966 4.23509 22.4966 3.8142C22.4966 3.3933 22.5832 3.0046 22.7565 2.64807C22.9298 2.29155 23.1774 1.98207 23.4993 1.71963C23.8261 1.45224 24.2148 1.24427 24.6654 1.09572C25.116 0.947169 25.6186 0.872894 26.1732 0.872894C26.9853 0.872894 27.6736 1.02887 28.2381 1.34083C28.8075 1.64783 29.2408 2.0514 29.5379 2.55152C29.835 3.04669 29.9835 3.57652 29.9835 4.14101H28.5574C28.5574 3.73497 28.4708 3.37597 28.2975 3.06402C28.1242 2.74711 27.8617 2.49952 27.5102 2.32126C27.1586 2.13805 26.7129 2.04644 26.1732 2.04644C25.6632 2.04644 25.2423 2.1232 24.9105 2.2767C24.5788 2.4302 24.3312 2.63817 24.1678 2.90061C24.0093 3.16305 23.9301 3.46263 23.9301 3.79934C23.9301 4.02712 23.9771 4.23509 24.0712 4.42326C24.1702 4.60647 24.3213 4.7773 24.5243 4.93576C24.7323 5.09421 24.9947 5.24029 25.3116 5.37398C25.6335 5.50768 26.0172 5.63642 26.4629 5.76021C27.0769 5.93352 27.6067 6.12664 28.0524 6.33956C28.498 6.55248 28.8644 6.79264 29.1516 7.06003C29.4438 7.32247 29.6592 7.62205 29.7978 7.95876C29.9414 8.29053 30.0132 8.66686 30.0132 9.08775C30.0132 9.52845 29.9241 9.92706 29.7458 10.2836C29.5676 10.6401 29.3126 10.9446 28.9808 11.1972C28.649 11.4497 28.2504 11.6453 27.785 11.7839C27.3245 11.9176 26.8095 11.9845 26.2401 11.9845C25.7399 11.9845 25.2472 11.9152 24.762 11.7765C24.2817 11.6379 23.8434 11.4299 23.4473 11.1526C23.0561 10.8753 22.7417 10.5336 22.504 10.1276C22.2713 9.71661 22.1549 9.24125 22.1549 8.70152H23.581C23.581 9.07289 23.6528 9.39228 23.7964 9.65967C23.94 9.92211 24.1356 10.14 24.3832 10.3133C24.6357 10.4866 24.9204 10.6153 25.2373 10.6995C25.5592 10.7788 25.8934 10.8184 26.2401 10.8184C26.7402 10.8184 27.1635 10.749 27.5102 10.6104C27.8568 10.4717 28.1192 10.2737 28.2975 10.0162C28.4807 9.7587 28.5723 9.45417 28.5723 9.1026ZM34.9971 3.79934V4.85405H30.652V3.79934H34.9971ZM32.1227 1.8459H33.4968V9.84536C33.4968 10.1177 33.5388 10.3232 33.623 10.4618C33.7072 10.6005 33.8161 10.6921 33.9498 10.7367C34.0835 10.7812 34.2271 10.8035 34.3806 10.8035C34.4945 10.8035 34.6134 10.7936 34.7372 10.7738C34.8659 10.749 34.9625 10.7292 35.0268 10.7144L35.0343 11.8359C34.9253 11.8706 34.7817 11.9028 34.6035 11.9325C34.4301 11.9672 34.2197 11.9845 33.9721 11.9845C33.6354 11.9845 33.3259 11.9176 33.0437 11.7839C32.7614 11.6502 32.5361 11.4274 32.3678 11.1155C32.2044 10.7986 32.1227 10.3727 32.1227 9.83793V1.8459ZM36.0964 7.90677V7.73594C36.0964 7.15659 36.1806 6.61933 36.3489 6.12416C36.5173 5.62404 36.7599 5.19077 37.0768 4.82434C37.3937 4.45297 37.7775 4.16577 38.2281 3.96275C38.6787 3.75478 39.1838 3.65079 39.7433 3.65079C40.3078 3.65079 40.8154 3.75478 41.266 3.96275C41.7215 4.16577 42.1077 4.45297 42.4247 4.82434C42.7465 5.19077 42.9916 5.62404 43.16 6.12416C43.3283 6.61933 43.4125 7.15659 43.4125 7.73594V7.90677C43.4125 8.48612 43.3283 9.02338 43.16 9.51855C42.9916 10.0137 42.7465 10.447 42.4247 10.8184C42.1077 11.1848 41.724 11.472 41.2734 11.68C40.8277 11.883 40.3227 11.9845 39.7582 11.9845C39.1937 11.9845 38.6861 11.883 38.2355 11.68C37.7849 11.472 37.3987 11.1848 37.0768 10.8184C36.7599 10.447 36.5173 10.0137 36.3489 9.51855C36.1806 9.02338 36.0964 8.48612 36.0964 7.90677ZM37.4705 7.73594V7.90677C37.4705 8.30786 37.5175 8.68666 37.6116 9.04318C37.7057 9.39475 37.8468 9.70671 38.035 9.97905C38.2281 10.2514 38.4683 10.4668 38.7555 10.6252C39.0426 10.7788 39.3769 10.8555 39.7582 10.8555C40.1345 10.8555 40.4638 10.7788 40.746 10.6252C41.0332 10.4668 41.2709 10.2514 41.4591 9.97905C41.6472 9.70671 41.7884 9.39475 41.8824 9.04318C41.9815 8.68666 42.031 8.30786 42.031 7.90677V7.73594C42.031 7.3398 41.9815 6.96595 41.8824 6.61438C41.7884 6.25786 41.6448 5.94343 41.4516 5.67108C41.2635 5.39379 41.0258 5.17591 40.7386 5.01746C40.4564 4.859 40.1246 4.77978 39.7433 4.77978C39.367 4.77978 39.0352 4.859 38.748 5.01746C38.4658 5.17591 38.2281 5.39379 38.035 5.67108C37.8468 5.94343 37.7057 6.25786 37.6116 6.61438C37.5175 6.96595 37.4705 7.3398 37.4705 7.73594ZM46.5098 5.06202V11.8359H45.1357V3.79934H46.4727L46.5098 5.06202ZM49.0203 3.75478L49.0129 5.03231C48.899 5.00756 48.7901 4.9927 48.6861 4.98775C48.587 4.97785 48.4731 4.97289 48.3444 4.97289C48.0275 4.97289 47.7477 5.02241 47.5051 5.12144C47.2625 5.22048 47.057 5.35913 46.8886 5.53739C46.7202 5.71565 46.5865 5.92857 46.4875 6.17615C46.3934 6.41879 46.3315 6.68618 46.3018 6.97833L45.9156 7.20115C45.9156 6.71589 45.9626 6.26033 46.0567 5.83449C46.1558 5.40864 46.3068 5.03231 46.5098 4.7055C46.7128 4.37374 46.9703 4.11625 47.2823 3.93304C47.5992 3.74487 47.9755 3.65079 48.4112 3.65079C48.5103 3.65079 48.6242 3.66317 48.7529 3.68793C48.8817 3.70774 48.9708 3.73002 49.0203 3.75478ZM52.6821 11.0041L54.9178 3.79934H56.3884L53.1649 13.0763C53.0906 13.2744 52.9916 13.4873 52.8678 13.7151C52.7489 13.9478 52.5954 14.1682 52.4073 14.3762C52.2191 14.5841 51.9913 14.7525 51.7239 14.8812C51.4615 15.0149 51.1471 15.0818 50.7806 15.0818C50.6717 15.0818 50.533 15.0669 50.3647 15.0372C50.1963 15.0075 50.0775 14.9827 50.0082 14.9629L50.0007 13.8488C50.0404 13.8538 50.1022 13.8587 50.1864 13.8637C50.2756 13.8736 50.3375 13.8785 50.3721 13.8785C50.6841 13.8785 50.949 13.8364 51.1669 13.7522C51.3847 13.673 51.568 13.5368 51.7165 13.3437C51.87 13.1556 52.0012 12.8956 52.1102 12.5638L52.6821 11.0041ZM51.0406 3.79934L53.1277 10.0385L53.4843 11.4868L52.4964 11.9919L49.5402 3.79934H51.0406ZM8.00545 25.9068V25.7359C8.00545 25.1566 8.08963 24.6193 8.25799 24.1242C8.42634 23.624 8.66898 23.1908 8.98589 22.8243C9.30279 22.453 9.68655 22.1658 10.1372 21.9627C10.5878 21.7548 11.0928 21.6508 11.6524 21.6508C12.2169 21.6508 12.7244 21.7548 13.175 21.9627C13.6306 22.1658 14.0168 22.453 14.3337 22.8243C14.6556 23.1908 14.9007 23.624 15.069 24.1242C15.2374 24.6193 15.3216 25.1566 15.3216 25.7359V25.9068C15.3216 26.4861 15.2374 27.0234 15.069 27.5185C14.9007 28.0137 14.6556 28.447 14.3337 28.8184C14.0168 29.1848 13.633 29.472 13.1824 29.68C12.7368 29.883 12.2317 29.9845 11.6672 29.9845C11.1027 29.9845 10.5952 29.883 10.1446 29.68C9.69398 29.472 9.30774 29.1848 8.98589 28.8184C8.66898 28.447 8.42634 28.0137 8.25799 27.5185C8.08963 27.0234 8.00545 26.4861 8.00545 25.9068ZM9.37954 25.7359V25.9068C9.37954 26.3079 9.42659 26.6867 9.52067 27.0432C9.61475 27.3948 9.75587 27.7067 9.94404 27.9791C10.1372 28.2514 10.3773 28.4668 10.6645 28.6252C10.9517 28.7788 11.2859 28.8555 11.6672 28.8555C12.0436 28.8555 12.3728 28.7788 12.6551 28.6252C12.9423 28.4668 13.18 28.2514 13.3681 27.9791C13.5563 27.7067 13.6974 27.3948 13.7915 27.0432C13.8905 26.6867 13.9401 26.3079 13.9401 25.9068V25.7359C13.9401 25.3398 13.8905 24.9659 13.7915 24.6144C13.6974 24.2579 13.5538 23.9434 13.3607 23.6711C13.1725 23.3938 12.9349 23.1759 12.6477 23.0175C12.3654 22.859 12.0337 22.7798 11.6524 22.7798C11.276 22.7798 10.9443 22.859 10.6571 23.0175C10.3748 23.1759 10.1372 23.3938 9.94404 23.6711C9.75587 23.9434 9.61475 24.2579 9.52067 24.6144C9.42659 24.9659 9.37954 25.3398 9.37954 25.7359ZM18.4189 23.5151V29.8359H17.0448V21.7993H18.3446L18.4189 23.5151ZM18.092 25.5131L17.5201 25.4908C17.5251 24.9412 17.6068 24.4336 17.7652 23.9682C17.9237 23.4978 18.1465 23.0893 18.4337 22.7426C18.7209 22.396 19.0626 22.1286 19.4587 21.9405C19.8598 21.7474 20.303 21.6508 20.7882 21.6508C21.1844 21.6508 21.5409 21.7053 21.8578 21.8142C22.1747 21.9182 22.4446 22.0865 22.6674 22.3193C22.8952 22.552 23.0685 22.8541 23.1873 23.2254C23.3062 23.5919 23.3656 24.04 23.3656 24.5698V29.8359H21.9841V24.555C21.9841 24.1341 21.9222 23.7974 21.7984 23.5448C21.6746 23.2873 21.4939 23.1016 21.2562 22.9877C21.0185 22.8689 20.7263 22.8095 20.3797 22.8095C20.0381 22.8095 19.7261 22.8813 19.4439 23.0249C19.1666 23.1685 18.9264 23.3666 18.7234 23.6191C18.5253 23.8716 18.3693 24.1613 18.2554 24.4881C18.1465 24.81 18.092 25.1516 18.092 25.5131ZM26.9457 18.4272V29.8359H25.5641V18.4272H26.9457ZM30.6446 21.7993V29.8359H29.2631V21.7993H30.6446ZM29.1591 19.6676C29.1591 19.4448 29.2259 19.2566 29.3596 19.1031C29.4983 18.9496 29.7013 18.8729 29.9687 18.8729C30.2311 18.8729 30.4317 18.9496 30.5703 19.1031C30.7139 19.2566 30.7857 19.4448 30.7857 19.6676C30.7857 19.8806 30.7139 20.0638 30.5703 20.2173C30.4317 20.3658 30.2311 20.4401 29.9687 20.4401C29.7013 20.4401 29.4983 20.3658 29.3596 20.2173C29.2259 20.0638 29.1591 19.8806 29.1591 19.6676ZM34.2247 23.5151V29.8359H32.8506V21.7993H34.1504L34.2247 23.5151ZM33.8978 25.5131L33.3259 25.4908C33.3309 24.9412 33.4126 24.4336 33.571 23.9682C33.7295 23.4978 33.9523 23.0893 34.2395 22.7426C34.5267 22.396 34.8684 22.1286 35.2645 21.9405C35.6656 21.7474 36.1088 21.6508 36.594 21.6508C36.9902 21.6508 37.3467 21.7053 37.6636 21.8142C37.9805 21.9182 38.2504 22.0865 38.4732 22.3193C38.701 22.552 38.8743 22.8541 38.9931 23.2254C39.112 23.5919 39.1714 24.04 39.1714 24.5698V29.8359H37.7899V24.555C37.7899 24.1341 37.728 23.7974 37.6042 23.5448C37.4804 23.2873 37.2997 23.1016 37.062 22.9877C36.8243 22.8689 36.5321 22.8095 36.1855 22.8095C35.8439 22.8095 35.5319 22.8813 35.2497 23.0249C34.9724 23.1685 34.7322 23.3666 34.5292 23.6191C34.3311 23.8716 34.1751 24.1613 34.0612 24.4881C33.9523 24.81 33.8978 25.1516 33.8978 25.5131ZM44.5935 29.9845C44.034 29.9845 43.5264 29.8904 43.0708 29.7022C42.6202 29.5091 42.2315 29.2393 41.9047 28.8926C41.5829 28.546 41.3353 28.135 41.162 27.6597C40.9887 27.1843 40.902 26.6644 40.902 26.0999V25.7879C40.902 25.1343 40.9986 24.5525 41.1917 24.0425C41.3848 23.5275 41.6472 23.0917 41.979 22.7352C42.3108 22.3787 42.6871 22.1088 43.108 21.9256C43.5289 21.7424 43.9646 21.6508 44.4152 21.6508C44.9896 21.6508 45.4848 21.7498 45.9007 21.9479C46.3216 22.146 46.6658 22.4233 46.9332 22.7798C47.2006 23.1313 47.3986 23.5473 47.5274 24.0276C47.6561 24.503 47.7205 25.0229 47.7205 25.5874V26.2039H41.719V25.0823H46.3464V24.9783C46.3266 24.6218 46.2523 24.2752 46.1236 23.9385C45.9998 23.6018 45.8017 23.3245 45.5294 23.1066C45.257 22.8887 44.8856 22.7798 44.4152 22.7798C44.1033 22.7798 43.8161 22.8466 43.5536 22.9803C43.2912 23.1091 43.0659 23.3022 42.8777 23.5597C42.6896 23.8172 42.5435 24.1316 42.4395 24.503C42.3355 24.8743 42.2835 25.3027 42.2835 25.7879V26.0999C42.2835 26.4812 42.3355 26.8402 42.4395 27.1769C42.5484 27.5086 42.7044 27.8008 42.9074 28.0533C43.1154 28.3059 43.3655 28.5039 43.6576 28.6475C43.9547 28.7911 44.2914 28.8629 44.6678 28.8629C45.153 28.8629 45.564 28.7639 45.9007 28.5658C46.2375 28.3678 46.5321 28.1028 46.7846 27.7711L47.6165 28.4321C47.4432 28.6946 47.2228 28.9446 46.9554 29.1823C46.6881 29.42 46.3588 29.6131 45.9676 29.7617C45.5814 29.9102 45.1233 29.9845 44.5935 29.9845Z" fill="white"/>
<path d="M1.37266 7.59481H0.421936V8.54554H1.37266V7.59481ZM1.37266 6.42869V5.47797H0.421936V6.42869H1.37266ZM6.37882 5.41855L5.53375 4.98281L5.52847 4.99337L6.37882 5.41855ZM6.37882 3.28684L5.52328 3.70165L5.52847 3.71202L6.37882 3.28684ZM5.62121 2.49952L5.14068 3.31994L5.14952 3.32498L5.62121 2.49952ZM1.7069 2.195V1.24427H0.756175V2.195H1.7069ZM1.7069 11.8359V12.7867H2.65762V11.8359H1.7069ZM0.273385 11.8359H-0.67734V12.7867H0.273385V11.8359ZM0.273385 1.02144V0.0707198H-0.67734V1.02144H0.273385ZM7.61922 2.61836L6.79829 3.09792L6.80039 3.10147L7.61922 2.61836ZM6.33425 7.21601L6.72251 8.08387L6.72881 8.081L6.33425 7.21601ZM4.26197 6.64409H1.37266V8.54554H4.26197V6.64409ZM2.32338 7.59481V6.42869H0.421936V7.59481H2.32338ZM1.37266 7.37942H4.26197V5.47797H1.37266V7.37942ZM4.26197 7.37942C4.91131 7.37942 5.52922 7.27769 6.05602 7.00677L5.1864 5.31583C5.01996 5.40143 4.73172 5.47797 4.26197 5.47797V7.37942ZM6.05602 7.00677C6.56337 6.74585 6.9713 6.35946 7.22917 5.84372L5.52847 4.99337C5.46943 5.11145 5.37229 5.22023 5.1864 5.31583L6.05602 7.00677ZM7.22383 5.85425C7.46581 5.38496 7.57465 4.87055 7.57465 4.33413H5.6732C5.6732 4.60978 5.61864 4.81832 5.53381 4.98284L7.22383 5.85425ZM7.57465 4.33413C7.57465 3.81766 7.4597 3.32272 7.22917 2.86167L5.52847 3.71202C5.62475 3.90459 5.6732 4.10783 5.6732 4.33413H7.57465ZM7.2343 2.87207C6.98397 2.35577 6.58868 1.95736 6.0929 1.67406L5.14952 3.32498C5.34698 3.43782 5.45676 3.5643 5.52334 3.70162L7.2343 2.87207ZM6.10171 1.67916C5.56305 1.36366 4.92716 1.24427 4.26197 1.24427V3.14572C4.71586 3.14572 4.98614 3.22935 5.14071 3.31989L6.10171 1.67916ZM4.26197 1.24427H1.7069V3.14572H4.26197V1.24427ZM0.756175 2.195V11.8359H2.65762V2.195H0.756175ZM1.7069 10.8852H0.273385V12.7867H1.7069V10.8852ZM1.22411 11.8359V1.02144H-0.67734V11.8359H1.22411ZM0.273385 1.97217H4.26197V0.0707198H0.273385V1.97217ZM4.26197 1.97217C4.97339 1.97217 5.50962 2.09544 5.90908 2.29517L6.75943 0.59446C6.0299 0.229695 5.18461 0.0707198 4.26197 0.0707198V1.97217ZM5.90908 2.29517C6.32388 2.50257 6.6076 2.77146 6.7983 3.09791L8.44014 2.13882C8.04654 1.46503 7.47362 0.951553 6.75943 0.59446L5.90908 2.29517ZM6.80039 3.10147C6.99685 3.43447 7.10672 3.83107 7.10672 4.31927H9.00817C9.00817 3.52994 8.82588 2.7926 8.43805 2.13526L6.80039 3.10147ZM7.10672 4.31927C7.10672 4.87796 6.98986 5.2934 6.80253 5.60774L8.43591 6.58117C8.83288 5.91506 9.00817 5.14706 9.00817 4.31927H7.10672ZM6.80253 5.60774C6.61804 5.9173 6.34439 6.16643 5.9397 6.35102L6.72881 8.081C7.45311 7.75062 8.0361 7.25204 8.43591 6.58117L6.80253 5.60774ZM5.94601 6.34817C5.53618 6.53152 4.98612 6.64409 4.26197 6.64409V8.54554C5.17188 8.54554 6.00335 8.40558 6.7225 8.08385L5.94601 6.34817ZM11.3701 11.7022L10.9956 12.5762L11.0072 12.581L11.3701 11.7022ZM10.204 10.8926L9.5073 11.5396L9.51226 11.5448L10.204 10.8926ZM9.46125 9.65967L8.56803 9.98532L9.46125 9.65967ZM9.49096 6.04246L10.3801 6.37912L10.3811 6.37628L9.49096 6.04246ZM10.2783 4.73521L9.58228 4.08755L10.2783 4.73521ZM11.4073 3.92561L11.7867 4.79733L11.4073 3.92561ZM14.2 3.94789L13.7913 4.80627L13.7952 4.80813L14.2 3.94789ZM15.2324 4.77978L14.4718 5.35023L14.4757 5.35532L15.2324 4.77978ZM15.8266 6.0276L14.9083 6.27375L14.909 6.27614L15.8266 6.0276ZM16.0198 8.20387V9.1546H16.9705V8.20387H16.0198ZM10.0183 8.20387H9.06759V9.1546H10.0183V8.20387ZM10.0183 7.08231V6.13159H9.06759V7.08231H10.0183ZM14.6457 7.08231V8.03304H15.5964V7.08231H14.6457ZM14.6457 6.97833H15.5964V6.95194L15.5949 6.92559L14.6457 6.97833ZM14.4228 5.93847L13.5304 6.26656L13.5348 6.27801L14.4228 5.93847ZM11.8529 4.98032L12.2716 5.83387L12.2781 5.83071L12.2845 5.82745L11.8529 4.98032ZM10.7388 9.17688L9.83039 9.45741L9.83288 9.46547L9.83551 9.47348L10.7388 9.17688ZM11.2067 10.0533L10.4657 10.6491L10.4728 10.6577L11.2067 10.0533ZM11.9569 10.6475L11.5375 11.5008L11.5432 11.5035L11.9569 10.6475ZM15.0839 9.77108L15.6754 9.02675L14.9154 8.42282L14.3274 9.19524L15.0839 9.77108ZM15.9158 10.4321L16.7091 10.956L17.1889 10.2295L16.5073 9.6878L15.9158 10.4321ZM14.2669 11.7617L13.9293 10.8729L13.9256 10.8743L14.2669 11.7617ZM12.8928 11.0338C12.441 11.0338 12.059 10.9581 11.7331 10.8235L11.0072 12.581C11.5924 12.8227 12.2254 12.9352 12.8928 12.9352V11.0338ZM11.7446 10.8284C11.4103 10.6851 11.1305 10.4894 10.8957 10.2404L9.51226 11.5448C9.93113 11.9891 10.4288 12.3332 10.9956 12.5761L11.7446 10.8284ZM10.9007 10.2457C10.671 9.99835 10.4874 9.69866 10.3545 9.33402L8.56803 9.98532C8.78171 10.5714 9.09329 11.0937 9.50732 11.5396L10.9007 10.2457ZM10.3545 9.33402C10.2233 8.97437 10.152 8.56607 10.152 8.09989H8.25056C8.25056 8.76269 8.35254 9.39424 8.56803 9.98532L10.3545 9.33402ZM10.152 8.09989V7.78793H8.25056V8.09989H10.152ZM10.152 7.78793C10.152 7.22708 10.2349 6.76256 10.3801 6.37912L8.60184 5.7058C8.36079 6.34241 8.25056 7.04154 8.25056 7.78793H10.152ZM10.3811 6.37628C10.5363 5.96262 10.7374 5.63745 10.9743 5.38288L9.58228 4.08755C9.15565 4.54602 8.83187 5.09235 8.60077 5.70864L10.3811 6.37628ZM10.9743 5.38288C11.2225 5.11607 11.4928 4.92526 11.7867 4.79733L11.0278 3.05389C10.4799 3.29238 9.99753 3.64131 9.58228 4.08755L10.9743 5.38288ZM11.7867 4.79733C12.0902 4.66523 12.397 4.60152 12.7145 4.60152V2.70007C12.1308 2.70007 11.5661 2.81957 11.0278 3.05389L11.7867 4.79733ZM12.7145 4.60152C13.1815 4.60152 13.5305 4.6821 13.7913 4.80627L14.6088 3.08952C14.0376 2.81755 13.3963 2.70007 12.7145 2.70007V4.60152ZM13.7952 4.80813C14.082 4.94309 14.3018 5.1234 14.4719 5.35021L15.993 4.20934C15.6284 3.72312 15.1598 3.34884 14.6048 3.08766L13.7952 4.80813ZM14.4757 5.35532C14.6595 5.59701 14.8075 5.89773 14.9083 6.27375L16.745 5.78146C16.5883 5.19685 16.3401 4.66569 15.9892 4.20424L14.4757 5.35532ZM14.909 6.27614C15.0129 6.65967 15.069 7.09485 15.069 7.58739H16.9705C16.9705 6.95094 16.8979 6.34626 16.7443 5.77907L14.909 6.27614ZM15.069 7.58739V8.20387H16.9705V7.58739H15.069ZM16.0198 7.25315H10.0183V9.1546H16.0198V7.25315ZM10.969 8.20387V7.08231H9.06759V8.20387H10.969ZM10.0183 8.03304H14.6457V6.13159H10.0183V8.03304ZM15.5964 7.08231V6.97833H13.6949V7.08231H15.5964ZM15.5949 6.92559C15.5696 6.46993 15.4744 6.02661 15.3109 5.59893L13.5348 6.27801C13.6288 6.52376 13.6821 6.77369 13.6964 7.03107L15.5949 6.92559ZM15.3152 5.61041C15.1333 5.11585 14.8343 4.6936 14.4226 4.3642L13.2347 5.84898C13.3677 5.95533 13.4648 6.08767 13.5305 6.26654L15.3152 5.61041ZM14.4226 4.3642C13.9311 3.97105 13.3257 3.82905 12.7145 3.82905V5.7305C13.0441 5.7305 13.1815 5.80638 13.2347 5.84898L14.4226 4.3642ZM12.7145 3.82905C12.2617 3.82905 11.8254 3.92738 11.4214 4.13319L12.2845 5.82745C12.4054 5.76588 12.5434 5.7305 12.7145 5.7305V3.82905ZM11.4342 4.12677C11.0212 4.32939 10.68 4.62844 10.4094 4.99873L11.9446 6.12061C12.0504 5.97592 12.1598 5.88874 12.2716 5.83387L11.4342 4.12677ZM10.4094 4.99873C10.1417 5.36506 9.9517 5.78795 9.82327 6.24662L11.6543 6.75931C11.7338 6.47523 11.836 6.26925 11.9446 6.12061L10.4094 4.99873ZM9.82327 6.24662C9.69081 6.71969 9.63208 7.23726 9.63208 7.78793H11.5335C11.5335 7.36807 11.5788 7.029 11.6543 6.75931L9.82327 6.24662ZM9.63208 7.78793V8.09989H11.5335V7.78793H9.63208ZM9.63208 8.09989C9.63208 8.56851 9.69614 9.0227 9.83039 9.45741L11.6472 8.89635C11.5735 8.65763 11.5335 8.39383 11.5335 8.09989H9.63208ZM9.83551 9.47348C9.97734 9.90541 10.1857 10.3007 10.4657 10.649L11.9477 9.45765C11.8217 9.30093 11.7181 9.11188 11.6421 8.88028L9.83551 9.47348ZM10.4728 10.6577C10.7663 11.0141 11.1234 11.2972 11.5375 11.5008L12.3763 9.79431C12.2061 9.71065 12.0631 9.59765 11.9406 9.44895L10.4728 10.6577ZM11.5432 11.5035C11.9863 11.7177 12.4676 11.8137 12.967 11.8137V9.91221C12.7138 9.91221 12.5217 9.86457 12.3706 9.79155L11.5432 11.5035ZM12.967 11.8137C13.5811 11.8137 14.1677 11.6878 14.6821 11.3853L13.718 9.74637C13.5589 9.83996 13.3235 9.91221 12.967 9.91221V11.8137ZM14.6821 11.3853C15.1322 11.1205 15.5181 10.7703 15.8404 10.3469L14.3274 9.19524C14.1446 9.43543 13.9412 9.61504 13.718 9.74637L14.6821 11.3853ZM14.4924 10.5154L15.3243 11.1765L16.5073 9.6878L15.6754 9.02675L14.4924 10.5154ZM15.1224 9.90823C15.0004 10.093 14.837 10.2816 14.6231 10.4717L15.8864 11.8929C16.2072 11.6077 16.4845 11.2962 16.7091 10.956L15.1224 9.90823ZM14.6231 10.4717C14.4554 10.6208 14.2305 10.7585 13.9293 10.8729L14.6044 12.6505C15.0856 12.4677 15.5193 12.2192 15.8864 11.8929L14.6231 10.4717ZM13.9256 10.8743C13.674 10.9711 13.3371 11.0338 12.8928 11.0338V12.9352C13.5081 12.9352 14.0872 12.8494 14.6082 12.649L13.9256 10.8743ZM20.9888 3.79934H21.9395V2.84862H20.9888V3.79934ZM20.9888 4.85405V5.80478H21.9395V4.85405H20.9888ZM16.6437 4.85405H15.693V5.80478H16.6437V4.85405ZM16.6437 3.79934V2.84862H15.693V3.79934H16.6437ZM18.1143 1.8459V0.895176H17.1636V1.8459H18.1143ZM19.4884 1.8459H20.4391V0.895176H19.4884V1.8459ZM20.7288 10.7738L20.879 11.7126L20.8937 11.7102L20.9084 11.7074L20.7288 10.7738ZM21.0185 10.7144L21.9692 10.7081L21.9613 9.52109L20.8047 9.788L21.0185 10.7144ZM21.0259 11.8359L21.3142 12.7419L21.9813 12.5297L21.9766 11.8296L21.0259 11.8359ZM20.5951 11.9325L20.4388 10.9947L20.4237 10.9972L20.4087 11.0002L20.5951 11.9325ZM18.3594 11.1155L17.5144 11.5512L17.5185 11.5591L17.5228 11.567L18.3594 11.1155ZM20.0381 3.79934V4.85405H21.9395V3.79934H20.0381ZM20.9888 3.90333H16.6437V5.80478H20.9888V3.90333ZM17.5944 4.85405V3.79934H15.693V4.85405H17.5944ZM16.6437 4.75007H20.9888V2.84862H16.6437V4.75007ZM18.1143 2.79663H19.4884V0.895176H18.1143V2.79663ZM18.5377 1.8459V9.84536H20.4391V1.8459H18.5377ZM18.5377 9.84536C18.5377 10.1868 18.5853 10.5983 18.802 10.9552L20.4274 9.96844C20.4558 10.0153 20.4566 10.0385 20.4514 10.013C20.4463 9.98835 20.4391 9.9353 20.4391 9.84536H18.5377ZM18.802 10.9552C18.9844 11.2557 19.2617 11.5122 19.6409 11.6386L20.2421 9.83473C20.2903 9.85077 20.335 9.87626 20.3714 9.90688C20.4064 9.93629 20.4231 9.96143 20.4274 9.96844L18.802 10.9552ZM19.6409 11.6386C19.8798 11.7182 20.1257 11.7542 20.3723 11.7542V9.85279C20.3119 9.85279 20.2706 9.84422 20.2421 9.83473L19.6409 11.6386ZM20.3723 11.7542C20.5412 11.7542 20.7105 11.7396 20.879 11.7126L20.5786 9.83502C20.4996 9.84766 20.4311 9.85279 20.3723 9.85279V11.7542ZM20.9084 11.7074C21.0398 11.6821 21.1503 11.6597 21.2323 11.6408L20.8047 9.788C20.758 9.79879 20.6754 9.81593 20.5493 9.84018L20.9084 11.7074ZM20.0678 10.7207L20.0752 11.8422L21.9766 11.8296L21.9692 10.7081L20.0678 10.7207ZM20.7377 10.93C20.6892 10.9454 20.5949 10.9687 20.4388 10.9947L20.7514 12.8703C20.9519 12.8369 21.1448 12.7958 21.3142 12.7419L20.7377 10.93ZM20.4087 11.0002C20.3157 11.0188 20.1716 11.0338 19.9638 11.0338V12.9352C20.2512 12.9352 20.528 12.9155 20.7816 12.8648L20.4087 11.0002ZM19.9638 11.0338C19.7566 11.0338 19.5876 10.9936 19.4423 10.9247L18.6284 12.6432C19.0476 12.8417 19.4975 12.9352 19.9638 12.9352V11.0338ZM19.4423 10.9247C19.3673 10.8892 19.2818 10.8228 19.1961 10.6639L17.5228 11.567C17.7737 12.032 18.1389 12.4113 18.6284 12.6432L19.4423 10.9247ZM19.2044 10.6798C19.1366 10.5482 19.0651 10.2907 19.0651 9.83793H17.1636C17.1636 10.4548 17.2555 11.049 17.5144 11.5512L19.2044 10.6798ZM19.0651 9.83793V1.8459H17.1636V9.83793H19.0651ZM28.4535 8.43413L27.5633 8.76795L27.5684 8.78154L27.5739 8.79498L28.4535 8.43413ZM28.0524 7.89934L27.4399 8.62662L27.4493 8.63432L28.0524 7.89934ZM27.2651 7.44626L26.8874 8.31878L26.8921 8.32078L27.2651 7.44626ZM26.0024 7.00804L25.7323 7.9196L25.7365 7.92083L26.0024 7.00804ZM24.554 6.48068L24.1568 7.34452L24.1651 7.34823L24.554 6.48068ZM23.4473 5.80478L24.0513 5.07054L23.4473 5.80478ZM23.4993 1.71963L24.1001 2.45646L24.1013 2.45545L23.4993 1.71963ZM28.2381 1.34083L27.7782 2.17299L27.7869 2.17768L28.2381 1.34083ZM29.5379 2.55152L28.7205 3.03709L28.7226 3.04066L29.5379 2.55152ZM29.9835 4.14101V5.09173H30.9343V4.14101H29.9835ZM28.5574 4.14101H27.6067V5.09173H28.5574V4.14101ZM28.2975 3.06402L27.4633 3.5202L27.4664 3.52573L28.2975 3.06402ZM27.5102 2.32126L27.0708 3.16443L27.0802 3.16922L27.5102 2.32126ZM24.1678 2.90061L23.3606 2.39805L23.3539 2.40921L24.1678 2.90061ZM24.0712 4.42326L23.2209 4.84843L23.2276 4.862L23.2349 4.87534L24.0712 4.42326ZM24.5243 4.93576L23.9393 5.68528L23.9481 5.69199L24.5243 4.93576ZM25.3116 5.37398L24.9421 6.24996L24.9469 6.25197L25.3116 5.37398ZM26.4629 5.76021L26.7211 4.84523L26.7173 4.84417L26.4629 5.76021ZM29.1516 7.06003L28.5038 7.75586L28.51 7.76163L28.5163 7.7673L29.1516 7.06003ZM29.7978 7.95876L28.9187 8.32075L28.922 8.32861L28.9253 8.33641L29.7978 7.95876ZM28.9808 11.1972L28.405 10.4407L28.9808 11.1972ZM27.785 11.7839L28.0501 12.697L28.0564 12.6951L27.785 11.7839ZM24.762 11.7765L24.4983 12.69L24.5008 12.6907L24.762 11.7765ZM23.4473 11.1526L22.8975 11.9282L22.9021 11.9315L23.4473 11.1526ZM22.504 10.1276L21.6766 10.5961L21.6835 10.6079L22.504 10.1276ZM22.1549 8.70152V7.75079H21.2042V8.70152H22.1549ZM23.581 8.70152H24.5317V7.75079H23.581V8.70152ZM23.7964 9.65967L22.9588 10.1095L22.9624 10.116L23.7964 9.65967ZM24.3832 10.3133L23.8379 11.0922L23.8452 11.0972L24.3832 10.3133ZM25.2373 10.6995L24.9933 11.6184L25.0017 11.6206L25.0101 11.6227L25.2373 10.6995ZM28.2975 10.0162L27.5228 9.46496L27.5158 9.47503L28.2975 10.0162ZM29.523 9.1026C29.523 8.75163 29.468 8.40221 29.333 8.07327L27.5739 8.79498C27.5974 8.85228 27.6216 8.9485 27.6216 9.1026H29.523ZM29.3436 8.1003C29.2008 7.71934 28.9543 7.40963 28.6554 7.16436L27.4493 8.63432C27.5366 8.70597 27.5576 8.75278 27.5633 8.76795L29.3436 8.1003ZM28.6648 7.17212C28.3786 6.93115 28.0234 6.73612 27.638 6.57175L26.8921 8.32078C27.1801 8.4436 27.3498 8.55063 27.44 8.62656L28.6648 7.17212ZM27.6427 6.57376C27.262 6.40898 26.8004 6.25025 26.2682 6.09524L25.7365 7.92083C26.2244 8.06293 26.6046 8.19635 26.8874 8.31876L27.6427 6.57376ZM26.2725 6.09649C25.7712 5.94795 25.3289 5.78619 24.9429 5.61314L24.1651 7.34823C24.6407 7.56141 25.164 7.75121 25.7323 7.91959L26.2725 6.09649ZM24.9512 5.61688C24.5808 5.4466 24.2844 5.26235 24.0513 5.07054L22.8433 6.53901C23.2242 6.85227 23.6656 7.11863 24.1569 7.34448L24.9512 5.61688ZM24.0513 5.07054C23.838 4.8951 23.6908 4.70809 23.592 4.51058L21.8913 5.36093C22.1194 5.81704 22.4426 6.20938 22.8433 6.53901L24.0513 5.07054ZM23.592 4.51058C23.504 4.33451 23.4473 4.10997 23.4473 3.8142H21.5458C21.5458 4.36022 21.6526 4.88338 21.8913 5.36093L23.592 4.51058ZM23.4473 3.8142C23.4473 3.52821 23.5051 3.28279 23.6116 3.06372L21.9015 2.23243C21.6614 2.72641 21.5458 3.2584 21.5458 3.8142H23.4473ZM23.6116 3.06372C23.7216 2.83739 23.8801 2.63585 24.1001 2.45646L22.8985 0.982804C22.4748 1.3283 22.1381 1.74572 21.9015 2.23243L23.6116 3.06372ZM24.1013 2.45545C24.3273 2.27054 24.6097 2.11514 24.9631 1.99864L24.3677 0.192796C23.8199 0.373401 23.3249 0.633939 22.8973 0.983813L24.1013 2.45545ZM24.9631 1.99864C25.303 1.88659 25.7031 1.82362 26.1732 1.82362V-0.0778309C25.5342 -0.0778309 24.9291 0.00775045 24.3677 0.192796L24.9631 1.99864ZM26.1732 1.82362C26.8654 1.82362 27.3864 1.95644 27.7782 2.17294L28.6979 0.508715C27.9607 0.101306 27.1052 -0.0778309 26.1732 -0.0778309V1.82362ZM27.7869 2.17768C28.2222 2.41235 28.521 2.70125 28.7205 3.03709L30.3553 2.06595C29.9606 1.40154 29.3928 0.883317 28.6892 0.503977L27.7869 2.17768ZM28.7226 3.04066C28.9332 3.39164 29.0328 3.75294 29.0328 4.14101H30.9343C30.9343 3.40009 30.7367 2.70173 30.3531 2.06237L28.7226 3.04066ZM29.9835 3.19029H28.5574V5.09173H29.9835V3.19029ZM29.5082 4.14101C29.5082 3.59597 29.3906 3.074 29.1286 2.6023L27.4664 3.52573C27.551 3.67795 27.6067 3.87397 27.6067 4.14101H29.5082ZM29.1316 2.60785C28.8578 2.10713 28.4465 1.73007 27.9401 1.47331L27.0802 3.16922C27.277 3.26897 27.3906 3.38709 27.4633 3.52019L29.1316 2.60785ZM27.9495 1.47815C27.4223 1.20338 26.8133 1.09572 26.1732 1.09572V2.99717C26.6126 2.99717 26.8949 3.07273 27.0708 3.16437L27.9495 1.47815ZM26.1732 1.09572C25.5763 1.09572 25.0074 1.18431 24.5113 1.41386L25.3097 3.13954C25.4772 3.06209 25.7501 2.99717 26.1732 2.99717V1.09572ZM24.5113 1.41386C24.0426 1.63071 23.6388 1.95151 23.3607 2.3981L24.9748 3.40312C25.0236 3.32483 25.1149 3.22969 25.3097 3.13954L24.5113 1.41386ZM23.3539 2.40921C23.0972 2.83428 22.9794 3.307 22.9794 3.79934H24.8808C24.8808 3.61826 24.9214 3.49182 24.9817 3.39201L23.3539 2.40921ZM22.9794 3.79934C22.9794 4.16226 23.0554 4.51755 23.2209 4.84843L24.9216 3.99808C24.8988 3.95263 24.8808 3.89198 24.8808 3.79934H22.9794ZM23.2349 4.87534C23.4092 5.19784 23.6567 5.46462 23.9393 5.68523L25.1092 4.18628C24.9859 4.08999 24.9313 4.01509 24.9076 3.97117L23.2349 4.87534ZM23.9481 5.69199C24.236 5.91133 24.5732 6.09433 24.9421 6.24994L25.6812 4.49802C25.4162 4.38624 25.2285 4.27709 25.1005 4.17952L23.9481 5.69199ZM24.9469 6.25197C25.3141 6.40451 25.7366 6.54519 26.2084 6.67625L26.7173 4.84417C26.2979 4.72765 25.9528 4.61085 25.6763 4.49599L24.9469 6.25197ZM26.2046 6.67519C26.7807 6.8378 27.2574 7.01339 27.6425 7.1974L28.4622 5.48172C27.9561 5.23988 27.373 5.02924 26.7211 4.84524L26.2046 6.67519ZM27.6425 7.1974C28.0225 7.37897 28.3028 7.56869 28.5038 7.75586L29.7995 6.3642C29.4261 6.01659 28.9735 5.726 28.4622 5.48172L27.6425 7.1974ZM28.5163 7.7673C28.7108 7.94201 28.8386 8.12611 28.9187 8.32075L30.677 7.59678C30.4798 7.11798 30.1768 6.70293 29.787 6.35277L28.5163 7.7673ZM28.9253 8.33641C29.0096 8.53099 29.0625 8.77564 29.0625 9.08775H30.964C30.964 8.55807 30.8733 8.05006 30.6703 7.58111L28.9253 8.33641ZM29.0625 9.08775C29.0625 9.39666 29.001 9.64734 28.8955 9.85841L30.5962 10.7088C30.8472 10.2068 30.964 9.66024 30.964 9.08775H29.0625ZM28.8955 9.85841C28.7852 10.0789 28.6266 10.272 28.405 10.4407L29.5567 11.9537C29.9986 11.6173 30.35 11.2013 30.5962 10.7088L28.8955 9.85841ZM28.405 10.4407C28.1782 10.6133 27.8869 10.7616 27.5136 10.8728L28.0564 12.6951C28.614 12.529 29.1199 12.2861 29.5567 11.9537L28.405 10.4407ZM27.5199 10.8709C27.1599 10.9754 26.7361 11.0338 26.2401 11.0338V12.9352C26.8829 12.9352 27.4891 12.8598 28.0501 12.697L27.5199 10.8709ZM26.2401 11.0338C25.8291 11.0338 25.4243 10.977 25.0232 10.8624L24.5008 12.6907C25.0702 12.8534 25.6508 12.9352 26.2401 12.9352V11.0338ZM25.0256 10.8631C24.6425 10.7525 24.3 10.589 23.9925 10.3737L22.9021 11.9315C23.3869 12.2708 23.9208 12.5233 24.4983 12.6899L25.0256 10.8631ZM23.9971 10.377C23.7139 10.1763 23.4926 9.93453 23.3245 9.64732L21.6835 10.6079C21.9908 11.1328 22.3983 11.5744 22.8975 11.9282L23.9971 10.377ZM23.3313 9.65914C23.1904 9.41038 23.1056 9.10083 23.1056 8.70152H21.2042C21.2042 9.38167 21.3521 10.0229 21.6767 10.5961L23.3313 9.65914ZM22.1549 9.65224H23.581V7.75079H22.1549V9.65224ZM22.6303 8.70152C22.6303 9.19516 22.7261 9.67614 22.9588 10.1095L24.634 9.20986C24.5795 9.10842 24.5317 8.95063 24.5317 8.70152H22.6303ZM22.9624 10.116C23.1769 10.5081 23.4719 10.8359 23.838 11.0922L24.9284 9.53443C24.7993 9.44409 24.7031 9.33611 24.6304 9.20331L22.9624 10.116ZM23.8452 11.0972C24.1934 11.3361 24.5788 11.5083 24.9933 11.6184L25.4814 9.78066C25.262 9.72239 25.078 9.63706 24.9211 9.52941L23.8452 11.0972ZM25.0101 11.6227C25.4096 11.721 25.8204 11.7691 26.2401 11.7691V9.86764C25.9665 9.86764 25.7088 9.83646 25.4646 9.77636L25.0101 11.6227ZM26.2401 11.7691C26.8224 11.7691 27.3733 11.6891 27.8633 11.4931L27.1571 9.72767C26.9538 9.80897 26.6579 9.86764 26.2401 9.86764V11.7691ZM27.8633 11.4931C28.3493 11.2987 28.7757 10.9957 29.0792 10.5574L27.5158 9.47503C27.4628 9.55162 27.3642 9.64481 27.1571 9.72767L27.8633 11.4931ZM29.0721 10.5674C29.3826 10.131 29.523 9.6285 29.523 9.1026H27.6216C27.6216 9.27985 27.5787 9.38644 27.5228 9.465L29.0721 10.5674ZM34.9971 3.79934H35.9478V2.84862H34.9971V3.79934ZM34.9971 4.85405V5.80478H35.9478V4.85405H34.9971ZM30.652 4.85405H29.7013V5.80478H30.652V4.85405ZM30.652 3.79934V2.84862H29.7013V3.79934H30.652ZM32.1227 1.8459V0.895176H31.1719V1.8459H32.1227ZM33.4968 1.8459H34.4475V0.895176H33.4968V1.8459ZM34.7372 10.7738L34.8874 11.7126L34.9021 11.7102L34.9167 11.7074L34.7372 10.7738ZM35.0268 10.7144L35.9775 10.7081L35.9697 9.52109L34.813 9.788L35.0268 10.7144ZM35.0343 11.8359L35.3225 12.7419L35.9896 12.5297L35.985 11.8296L35.0343 11.8359ZM34.6035 11.9325L34.4472 10.9947L34.432 10.9972L34.417 11.0002L34.6035 11.9325ZM32.3678 11.1155L31.5228 11.5512L31.5269 11.5591L31.5311 11.567L32.3678 11.1155ZM34.0464 3.79934V4.85405H35.9478V3.79934H34.0464ZM34.9971 3.90333H30.652V5.80478H34.9971V3.90333ZM31.6027 4.85405V3.79934H29.7013V4.85405H31.6027ZM30.652 4.75007H34.9971V2.84862H30.652V4.75007ZM32.1227 2.79663H33.4968V0.895176H32.1227V2.79663ZM32.546 1.8459V9.84536H34.4475V1.8459H32.546ZM32.546 9.84536C32.546 10.1868 32.5937 10.5983 32.8104 10.9552L34.4357 9.96844C34.4641 10.0153 34.4649 10.0385 34.4597 10.013C34.4547 9.98835 34.4475 9.9353 34.4475 9.84536H32.546ZM32.8104 10.9552C32.9928 11.2557 33.27 11.5122 33.6492 11.6386L34.2505 9.83473C34.2986 9.85077 34.3433 9.87626 34.3797 9.90688C34.4147 9.93629 34.4314 9.96143 34.4357 9.96844L32.8104 10.9552ZM33.6492 11.6386C33.8881 11.7182 34.134 11.7542 34.3806 11.7542V9.85279C34.3202 9.85279 34.279 9.84422 34.2505 9.83473L33.6492 11.6386ZM34.3806 11.7542C34.5496 11.7542 34.7188 11.7396 34.8874 11.7126L34.5869 9.83502C34.5079 9.84766 34.4395 9.85279 34.3806 9.85279V11.7542ZM34.9167 11.7074C35.0481 11.6821 35.1586 11.6597 35.2406 11.6408L34.813 9.788C34.7663 9.79879 34.6837 9.81593 34.5576 9.84018L34.9167 11.7074ZM34.0761 10.7207L34.0836 11.8422L35.985 11.8296L35.9775 10.7081L34.0761 10.7207ZM34.746 10.93C34.6975 10.9454 34.6032 10.9687 34.4472 10.9947L34.7598 12.8703C34.9602 12.8369 35.1531 12.7958 35.3225 12.7419L34.746 10.93ZM34.417 11.0002C34.324 11.0188 34.1799 11.0338 33.9721 11.0338V12.9352C34.2595 12.9352 34.5363 12.9155 34.7899 12.8648L34.417 11.0002ZM33.9721 11.0338C33.765 11.0338 33.596 10.9936 33.4507 10.9247L32.6367 12.6432C33.0559 12.8417 33.5058 12.9352 33.9721 12.9352V11.0338ZM33.4507 10.9247C33.3756 10.8892 33.2902 10.8228 33.2044 10.6639L31.5311 11.567C31.7821 12.032 32.1473 12.4113 32.6367 12.6432L33.4507 10.9247ZM33.2128 10.6798C33.1449 10.5482 33.0734 10.2907 33.0734 9.83793H31.1719C31.1719 10.4548 31.2638 11.049 31.5228 11.5512L33.2128 10.6798ZM33.0734 9.83793V1.8459H31.1719V9.83793H33.0734ZM36.3489 6.12416L37.2491 6.4302L37.25 6.42748L36.3489 6.12416ZM37.0768 4.82434L37.7959 5.44628L37.8 5.44148L37.0768 4.82434ZM38.2281 3.96275L38.6187 4.82959L38.6265 4.82597L38.2281 3.96275ZM41.266 3.96275L40.8675 4.82604L40.879 4.83114L41.266 3.96275ZM42.4247 4.82434L41.7014 5.44154L41.7104 5.45177L42.4247 4.82434ZM43.16 6.12416L42.2589 6.42748L42.2599 6.4302L43.16 6.12416ZM43.16 9.51855L42.2599 9.21251L43.16 9.51855ZM42.4247 10.8184L41.7062 10.1957L41.7056 10.1964L42.4247 10.8184ZM41.2734 11.68L41.6675 12.5451L41.6718 12.5432L41.2734 11.68ZM38.2355 11.68L37.8371 12.5432L37.845 12.5468L38.2355 11.68ZM37.0768 10.8184L36.3535 11.4356L36.3625 11.4458L37.0768 10.8184ZM37.6116 9.04318L36.6923 9.28577L36.6932 9.28896L37.6116 9.04318ZM38.035 9.97905L37.2527 10.5195L37.2594 10.529L38.035 9.97905ZM38.7555 10.6252L38.2961 11.4578L38.3073 11.4637L38.7555 10.6252ZM40.746 10.6252L41.2003 11.4605L41.2053 11.4577L40.746 10.6252ZM41.4591 9.97905L42.2413 10.5195L41.4591 9.97905ZM41.8824 9.04318L40.9664 8.78872L40.964 8.79741L41.8824 9.04318ZM41.8824 6.61438L40.9632 6.85696L40.9652 6.86458L40.9673 6.87216L41.8824 6.61438ZM41.4516 5.67108L40.6649 6.20492L40.6704 6.21302L40.6761 6.22101L41.4516 5.67108ZM40.7386 5.01746L40.2732 5.8465L40.2793 5.84989L40.7386 5.01746ZM38.748 5.01746L38.2887 4.185L38.2826 4.18844L38.748 5.01746ZM38.035 5.67108L37.2548 5.12775L37.2528 5.13066L38.035 5.67108ZM37.6116 6.61438L38.53 6.86015L38.5309 6.85696L37.6116 6.61438ZM37.0471 7.90677V7.73594H35.1457V7.90677H37.0471ZM37.0471 7.73594C37.0471 7.24955 37.1176 6.8168 37.249 6.4302L35.4488 5.81812C35.2435 6.42186 35.1457 7.06363 35.1457 7.73594H37.0471ZM37.25 6.42748C37.3825 6.03386 37.5667 5.71127 37.7959 5.44626L36.3577 4.20242C35.9531 4.67026 35.6521 5.21422 35.4479 5.82084L37.25 6.42748ZM37.8 5.44148C38.0247 5.17821 38.2944 4.97566 38.6186 4.82956L37.8376 3.09594C37.2606 3.35588 36.7628 3.72772 36.3536 4.20721L37.8 5.44148ZM38.6265 4.82597C38.9372 4.68259 39.3038 4.60152 39.7433 4.60152V2.70007C39.0638 2.70007 38.4202 2.82697 37.8297 3.09953L38.6265 4.82597ZM39.7433 4.60152C40.1892 4.60152 40.558 4.68308 40.8675 4.82597L41.6644 3.09953C41.0727 2.82648 40.4265 2.70007 39.7433 2.70007V4.60152ZM40.879 4.83114C41.208 4.97779 41.4785 5.18023 41.7015 5.44148L43.1479 4.20721C42.737 3.7257 42.235 3.35375 41.653 3.09436L40.879 4.83114ZM41.7104 5.45177C41.9425 5.71606 42.1274 6.03682 42.2589 6.42748L44.061 5.82084C43.8558 5.21126 43.5505 4.66547 43.1389 4.19692L41.7104 5.45177ZM42.2599 6.4302C42.3913 6.8168 42.4618 7.24955 42.4618 7.73594H44.3632C44.3632 7.06363 44.2654 6.42186 44.0601 5.81812L42.2599 6.4302ZM42.4618 7.73594V7.90677H44.3632V7.73594H42.4618ZM42.4618 7.90677C42.4618 8.39316 42.3913 8.82591 42.2599 9.21251L44.0601 9.82459C44.2654 9.22085 44.3632 8.57908 44.3632 7.90677H42.4618ZM42.2599 9.21251C42.1285 9.59895 41.9426 9.92299 41.7062 10.1957L43.1431 11.441C43.5505 10.971 43.8548 10.4285 44.0601 9.82459L42.2599 9.21251ZM41.7056 10.1964C41.4794 10.458 41.2058 10.664 40.875 10.8167L41.6718 12.5432C42.2422 12.2799 42.7361 11.9116 43.1437 11.4403L41.7056 10.1964ZM40.8792 10.8148C40.5749 10.9534 40.2074 11.0338 39.7582 11.0338V12.9352C40.438 12.9352 41.0806 12.8125 41.6675 12.5451L40.8792 10.8148ZM39.7582 11.0338C39.3092 11.0338 38.9376 10.9535 38.6261 10.8132L37.845 12.5468C38.4347 12.8124 39.0781 12.9352 39.7582 12.9352V11.0338ZM38.6339 10.8167C38.3018 10.6634 38.0237 10.4558 37.7911 10.1909L36.3625 11.4458C36.7736 11.9138 37.2681 12.2805 37.8371 12.5432L38.6339 10.8167ZM37.8 10.2012C37.5667 9.92778 37.3814 9.60191 37.249 9.21251L35.4488 9.82459C35.6531 10.4255 35.9532 10.9662 36.3536 11.4355L37.8 10.2012ZM37.249 9.21251C37.1176 8.82591 37.0471 8.39316 37.0471 7.90677H35.1457C35.1457 8.57908 35.2435 9.22085 35.4488 9.82459L37.249 9.21251ZM36.5198 7.73594V7.90677H38.4212V7.73594H36.5198ZM36.5198 7.90677C36.5198 8.38262 36.5756 8.84348 36.6924 9.28577L38.5309 8.8006C38.4594 8.52985 38.4212 8.2331 38.4212 7.90677H36.5198ZM36.6932 9.28896C36.8127 9.73538 36.9968 10.149 37.2528 10.5195L38.8172 9.43863C38.6968 9.26445 38.5987 9.05412 38.53 8.79741L36.6932 9.28896ZM37.2594 10.529C37.5338 10.9159 37.8813 11.2288 38.2962 11.4577L39.2147 9.79282C39.0552 9.70478 38.9224 9.58685 38.8105 9.42913L37.2594 10.529ZM38.3073 11.4637C38.7542 11.7026 39.2473 11.8062 39.7582 11.8062V9.90478C39.5065 9.90478 39.3311 9.85492 39.2036 9.78677L38.3073 11.4637ZM39.7582 11.8062C40.2659 11.8062 40.7565 11.7018 41.2003 11.4604L40.2918 9.79005C40.1711 9.8557 40.0031 9.90478 39.7582 9.90478V11.8062ZM41.2053 11.4577C41.6225 11.2275 41.9703 10.9117 42.2413 10.5195L40.6769 9.43863C40.5715 9.59113 40.444 9.70609 40.2868 9.79282L41.2053 11.4577ZM42.2413 10.5195C42.4972 10.149 42.6814 9.73538 42.8009 9.28896L40.964 8.79741C40.8953 9.05412 40.7972 9.26445 40.6769 9.43863L42.2413 10.5195ZM42.7985 9.29764C42.9224 8.85163 42.9817 8.38669 42.9817 7.90677H41.0803C41.0803 8.22903 41.0406 8.5217 40.9664 8.78873L42.7985 9.29764ZM42.9817 7.90677V7.73594H41.0803V7.90677H42.9817ZM42.9817 7.73594C42.9817 7.25997 42.9221 6.79882 42.7976 6.3566L40.9673 6.87216C41.0408 7.13308 41.0803 7.41964 41.0803 7.73594H42.9817ZM42.8017 6.3718C42.6816 5.91653 42.4928 5.49572 42.2272 5.12116L40.6761 6.22101C40.7967 6.39113 40.8952 6.59919 40.9632 6.85696L42.8017 6.3718ZM42.2383 5.13725C41.968 4.7388 41.6191 4.41744 41.1979 4.18503L40.2793 5.84989C40.4325 5.93439 40.559 6.04877 40.6649 6.20492L42.2383 5.13725ZM41.204 4.18844C40.7562 3.93705 40.2585 3.82905 39.7433 3.82905V5.7305C39.9907 5.7305 40.1565 5.78096 40.2732 5.84648L41.204 4.18844ZM39.7433 3.82905C39.2303 3.82905 38.7361 3.93819 38.2887 4.18503L39.2073 5.84989C39.3343 5.77982 39.5037 5.7305 39.7433 5.7305V3.82905ZM38.2826 4.18844C37.8697 4.42026 37.5262 4.73801 37.2548 5.12775L38.8152 6.21442C38.93 6.04956 39.0619 5.93157 39.2134 5.84648L38.2826 4.18844ZM37.2528 5.13066C36.9953 5.50331 36.8114 5.92086 36.6924 6.3718L38.5309 6.85696C38.6 6.59486 38.6983 6.38354 38.8172 6.2115L37.2528 5.13066ZM36.6932 6.36861C36.5759 6.80707 36.5198 7.26409 36.5198 7.73594H38.4212C38.4212 7.41551 38.4592 7.12483 38.53 6.86015L36.6932 6.36861ZM46.5098 5.06202H47.4605V5.04805L47.4601 5.03407L46.5098 5.06202ZM46.5098 11.8359V12.7867H47.4605V11.8359H46.5098ZM45.1357 11.8359H44.185V12.7867H45.1357V11.8359ZM45.1357 3.79934V2.84862H44.185V3.79934H45.1357ZM46.4727 3.79934L47.423 3.77139L47.3958 2.84862H46.4727V3.79934ZM49.0203 3.75478L49.971 3.76031L49.9745 3.16891L49.4455 2.90442L49.0203 3.75478ZM49.0129 5.03231L48.8109 5.96134L49.9568 6.21044L49.9636 5.03784L49.0129 5.03231ZM48.6861 4.98775L48.5915 5.93376L48.6161 5.93622L48.6408 5.9374L48.6861 4.98775ZM46.4875 6.17615L45.6047 5.82304L45.6011 5.83244L46.4875 6.17615ZM46.3018 6.97833L46.7769 7.80183L47.1984 7.55865L47.2477 7.07452L46.3018 6.97833ZM45.9156 7.20115H44.9649V8.84725L46.3907 8.02466L45.9156 7.20115ZM46.0567 5.83449L45.1306 5.61912L45.1284 5.62939L46.0567 5.83449ZM46.5098 4.7055L47.3174 5.2072L47.3207 5.20175L46.5098 4.7055ZM47.2823 3.93304L47.7637 4.75284L47.7676 4.75052L47.2823 3.93304ZM48.7529 3.68793L48.5734 4.62155L48.5908 4.6249L48.6083 4.6276L48.7529 3.68793ZM45.5591 5.06202V11.8359H47.4605V5.06202H45.5591ZM46.5098 10.8852H45.1357V12.7867H46.5098V10.8852ZM46.0864 11.8359V3.79934H44.185V11.8359H46.0864ZM45.1357 4.75007H46.4727V2.84862H45.1357V4.75007ZM45.5223 3.82729L45.5595 5.08997L47.4601 5.03407L47.423 3.77139L45.5223 3.82729ZM48.0696 3.74925L48.0622 5.02679L49.9636 5.03784L49.971 3.76031L48.0696 3.74925ZM49.2148 4.10329C49.0554 4.06862 48.8938 4.04584 48.7313 4.0381L48.6408 5.9374C48.6863 5.93956 48.7426 5.94649 48.8109 5.96134L49.2148 4.10329ZM48.7807 4.04174C48.6427 4.02794 48.4961 4.02217 48.3444 4.02217V5.92362C48.4502 5.92362 48.5314 5.92775 48.5915 5.93376L48.7807 4.04174ZM48.3444 4.02217C47.9294 4.02217 47.5237 4.08699 47.1458 4.24122L47.8644 6.00167C47.9718 5.95783 48.1255 5.92362 48.3444 5.92362V4.02217ZM47.1458 4.24122C46.7864 4.38793 46.4652 4.60104 46.1974 4.8846L47.5798 6.19018C47.6487 6.11722 47.7385 6.05303 47.8644 6.00167L47.1458 4.24122ZM46.1974 4.8846C45.94 5.15715 45.7443 5.47419 45.6048 5.82306L47.3702 6.52925C47.4288 6.38295 47.5005 6.27414 47.5798 6.19018L46.1974 4.8846ZM45.6011 5.83244C45.4725 6.16397 45.3932 6.51588 45.356 6.88214L47.2477 7.07452C47.2698 6.85648 47.3143 6.6736 47.3739 6.51987L45.6011 5.83244ZM45.8267 6.15482L45.4405 6.37765L46.3907 8.02466L46.7769 7.80183L45.8267 6.15482ZM46.8663 7.20115C46.8663 6.77724 46.9074 6.39102 46.9851 6.03959L45.1284 5.62939C45.0179 6.12964 44.9649 6.65454 44.9649 7.20115H46.8663ZM46.9827 6.04984C47.0614 5.71166 47.1762 5.43453 47.3174 5.20718L45.7022 4.20382C45.4374 4.6301 45.2501 5.10563 45.1307 5.61914L46.9827 6.04984ZM47.3207 5.20175C47.4485 4.99299 47.5965 4.85102 47.7637 4.75284L46.8008 3.11324C46.3441 3.38148 45.9772 3.75449 45.6989 4.20926L47.3207 5.20175ZM47.7676 4.75052C47.9128 4.66432 48.1149 4.60152 48.4112 4.60152V2.70007C47.8361 2.70007 47.2855 2.82543 46.7969 3.11555L47.7676 4.75052ZM48.4112 4.60152C48.4343 4.60152 48.486 4.60475 48.5734 4.62155L48.9325 2.75431C48.7623 2.72159 48.5863 2.70007 48.4112 2.70007V4.60152ZM48.6083 4.6276C48.6306 4.63102 48.6482 4.6341 48.6617 4.63672C48.6754 4.63936 48.6831 4.64117 48.6857 4.64184C48.6888 4.6426 48.6829 4.64126 48.6703 4.63699C48.6637 4.63476 48.6541 4.63131 48.642 4.62642C48.6301 4.62158 48.6141 4.61462 48.5951 4.60513L49.4455 2.90442C49.2498 2.80658 49.0276 2.76829 48.8975 2.74826L48.6083 4.6276ZM52.6821 11.0041L53.5747 11.3313L53.583 11.3088L53.5901 11.2858L52.6821 11.0041ZM54.9178 3.79934V2.84862H54.2173L54.0098 3.51758L54.9178 3.79934ZM56.3884 3.79934L57.2865 4.1114L57.7253 2.84862H56.3884V3.79934ZM53.1649 13.0763L54.0551 13.4102L54.0591 13.3993L54.0629 13.3884L53.1649 13.0763ZM52.8678 13.7151L52.0324 13.2611L52.0266 13.2719L52.021 13.2827L52.8678 13.7151ZM51.7239 14.8812L51.3115 14.0246L51.3019 14.0293L51.2924 14.0341L51.7239 14.8812ZM50.0082 14.9629L49.0575 14.9693L49.0622 15.6814L49.747 15.8771L50.0082 14.9629ZM50.0007 13.8488L50.1187 12.9054L49.0428 12.7709L49.05 13.8551L50.0007 13.8488ZM50.1864 13.8637L50.2914 12.9187L50.2669 12.916L50.2423 12.9146L50.1864 13.8637ZM51.1669 13.7522L50.842 12.8588L50.8331 12.862L50.8242 12.8654L51.1669 13.7522ZM51.7165 13.3437L50.9798 12.7427L50.9712 12.7533L50.9629 12.7641L51.7165 13.3437ZM52.1102 12.5638L51.2175 12.2365L51.212 12.2518L51.2069 12.2672L52.1102 12.5638ZM51.0406 3.79934L51.9422 3.49773L51.7251 2.84862H51.0406V3.79934ZM53.1277 10.0385L54.0509 9.81123L54.0416 9.77361L54.0293 9.73686L53.1277 10.0385ZM53.4843 11.4868L53.9171 12.3333L54.5874 11.9906L54.4074 11.2596L53.4843 11.4868ZM52.4964 11.9919L51.6021 12.3146L51.9684 13.3297L52.9292 12.8384L52.4964 11.9919ZM49.5402 3.79934V2.84862H48.1865L48.6459 4.12203L49.5402 3.79934ZM53.5901 11.2858L55.8258 4.08111L54.0098 3.51758L51.7741 10.7223L53.5901 11.2858ZM54.9178 4.75007H56.3884V2.84862H54.9178V4.75007ZM55.4904 3.48729L52.2668 12.7643L54.0629 13.3884L57.2865 4.1114L55.4904 3.48729ZM52.2747 12.7425C52.2189 12.8913 52.1397 13.0638 52.0324 13.2611L53.7031 14.1691C53.8434 13.9109 53.9623 13.6575 54.0551 13.4102L52.2747 12.7425ZM52.021 13.2827C51.9429 13.4358 51.8384 13.5878 51.7023 13.7383L53.1123 15.014C53.3524 14.7486 53.555 14.4599 53.7145 14.1475L52.021 13.2827ZM51.7023 13.7383C51.6013 13.8499 51.4747 13.9461 51.3115 14.0246L52.1364 15.7378C52.508 15.5589 52.8369 15.3183 53.1123 15.014L51.7023 13.7383ZM51.2924 14.0341C51.1923 14.0851 51.0329 14.131 50.7806 14.131V16.0325C51.2612 16.0325 51.7307 15.9448 52.1555 15.7284L51.2924 14.0341ZM50.7806 14.131C50.749 14.131 50.6707 14.1258 50.5299 14.1009L50.1995 15.9735C50.3954 16.008 50.5944 16.0325 50.7806 16.0325V14.131ZM50.5299 14.1009C50.4518 14.0872 50.3901 14.0754 50.3432 14.0656C50.3199 14.0608 50.3019 14.0567 50.2886 14.0536C50.2747 14.0503 50.269 14.0487 50.2694 14.0488L49.747 15.8771C49.8684 15.9118 50.0305 15.9436 50.1995 15.9735L50.5299 14.1009ZM50.9589 14.9566L50.9514 13.8425L49.05 13.8551L49.0575 14.9693L50.9589 14.9566ZM49.8828 14.7922C49.9552 14.8012 50.0432 14.8076 50.1306 14.8127L50.2423 12.9146C50.2047 12.9124 50.1751 12.9103 50.1527 12.9085C50.1416 12.9076 50.1331 12.9069 50.1269 12.9063C50.1206 12.9057 50.1181 12.9053 50.1187 12.9054L49.8828 14.7922ZM50.0814 14.8086C50.1677 14.8181 50.2782 14.8292 50.3721 14.8292V12.9278C50.3846 12.9278 50.3913 12.9282 50.3897 12.9281C50.3888 12.9281 50.3843 12.9278 50.3755 12.9271C50.3575 12.9257 50.3301 12.923 50.2914 12.9187L50.0814 14.8086ZM50.3721 14.8292C50.7642 14.8292 51.1524 14.777 51.5095 14.6391L50.8242 12.8654C50.7456 12.8958 50.6039 12.9278 50.3721 12.9278V14.8292ZM51.4918 14.6457C51.8883 14.5015 52.2172 14.2521 52.4701 13.9234L50.9629 12.7641C50.9187 12.8216 50.8812 12.8445 50.842 12.8588L51.4918 14.6457ZM52.4532 13.9447C52.7051 13.6359 52.8827 13.2585 53.0134 12.8604L51.2069 12.2672C51.1197 12.5327 51.0349 12.6753 50.9798 12.7427L52.4532 13.9447ZM53.0028 12.8911L53.5747 11.3313L51.7895 10.6768L51.2175 12.2365L53.0028 12.8911ZM50.139 4.10095L52.2261 10.3401L54.0293 9.73686L51.9422 3.49773L50.139 4.10095ZM52.2046 10.2657L52.5611 11.7141L54.4074 11.2596L54.0509 9.81123L52.2046 10.2657ZM53.0515 10.6403L52.0636 11.1454L52.9292 12.8384L53.9171 12.3333L53.0515 10.6403ZM53.3907 11.6692L50.4345 3.47665L48.6459 4.12203L51.6021 12.3146L53.3907 11.6692ZM49.5402 4.75007H51.0406V2.84862H49.5402V4.75007ZM8.25799 24.1242L9.15811 24.4302L9.15903 24.4275L8.25799 24.1242ZM8.98589 22.8243L9.70499 23.4463L9.70909 23.4415L8.98589 22.8243ZM10.1372 21.9627L10.5277 22.8296L10.5356 22.826L10.1372 21.9627ZM13.175 21.9627L12.7766 22.826L12.788 22.8311L13.175 21.9627ZM14.3337 22.8243L13.6104 23.4415L13.6194 23.4518L14.3337 22.8243ZM15.069 24.1242L14.168 24.4275L14.1689 24.4302L15.069 24.1242ZM15.069 27.5185L14.1689 27.2125L15.069 27.5185ZM14.3337 28.8184L13.6153 28.1957L13.6146 28.1964L14.3337 28.8184ZM13.1824 29.68L13.5766 30.5451L13.5809 30.5432L13.1824 29.68ZM10.1446 29.68L9.74616 30.5432L9.75404 30.5468L10.1446 29.68ZM8.98589 28.8184L8.26261 29.4356L8.27159 29.4458L8.98589 28.8184ZM9.52067 27.0432L8.60141 27.2858L8.60226 27.289L9.52067 27.0432ZM9.94404 27.9791L9.16179 28.5195L9.1685 28.529L9.94404 27.9791ZM10.6645 28.6252L10.2052 29.4578L10.2164 29.4637L10.6645 28.6252ZM12.6551 28.6252L13.1093 29.4605L13.1144 29.4577L12.6551 28.6252ZM13.3681 27.9791L14.1503 28.5195L13.3681 27.9791ZM13.7915 27.0432L12.8754 26.7887L12.8731 26.7974L13.7915 27.0432ZM13.7915 24.6144L12.8722 24.857L12.8743 24.8646L12.8764 24.8722L13.7915 24.6144ZM13.3607 23.6711L12.574 24.2049L12.5795 24.213L12.5852 24.221L13.3607 23.6711ZM12.6477 23.0175L12.1822 23.8465L12.1884 23.8499L12.6477 23.0175ZM10.6571 23.0175L10.1978 22.185L10.1917 22.1884L10.6571 23.0175ZM9.94404 23.6711L9.16386 23.1277L9.16185 23.1307L9.94404 23.6711ZM9.52067 24.6144L10.4391 24.8602L10.4399 24.857L9.52067 24.6144ZM8.95617 25.9068V25.7359H7.05473V25.9068H8.95617ZM8.95617 25.7359C8.95617 25.2496 9.02666 24.8168 9.15811 24.4302L7.35787 23.8181C7.15259 24.4219 7.05473 25.0636 7.05473 25.7359H8.95617ZM9.15903 24.4275C9.29153 24.0339 9.47578 23.7113 9.70498 23.4463L8.26679 22.2024C7.86218 22.6703 7.56115 23.2142 7.35695 23.8208L9.15903 24.4275ZM9.70909 23.4415C9.93374 23.1782 10.2034 22.9757 10.5277 22.8296L9.74661 21.0959C9.16968 21.3559 8.67184 21.7277 8.26268 22.2072L9.70909 23.4415ZM10.5356 22.826C10.8462 22.6826 11.2128 22.6015 11.6524 22.6015V20.7001C10.9728 20.7001 10.3293 20.827 9.73874 21.0995L10.5356 22.826ZM11.6524 22.6015C12.0982 22.6015 12.467 22.6831 12.7766 22.826L13.5734 21.0995C12.9818 20.8265 12.3355 20.7001 11.6524 20.7001V22.6015ZM12.788 22.8311C13.1171 22.9778 13.3876 23.1802 13.6105 23.4415L15.0569 22.2072C14.646 21.7257 14.1441 21.3538 13.562 21.0944L12.788 22.8311ZM13.6194 23.4518C13.8516 23.7161 14.0365 24.0368 14.168 24.4275L15.9701 23.8208C15.7649 23.2113 15.4596 22.6655 15.048 22.1969L13.6194 23.4518ZM14.1689 24.4302C14.3004 24.8168 14.3708 25.2496 14.3708 25.7359H16.2723C16.2723 25.0636 16.1744 24.4219 15.9692 23.8181L14.1689 24.4302ZM14.3708 25.7359V25.9068H16.2723V25.7359H14.3708ZM14.3708 25.9068C14.3708 26.3932 14.3004 26.8259 14.1689 27.2125L15.9692 27.8246C16.1744 27.2208 16.2723 26.5791 16.2723 25.9068H14.3708ZM14.1689 27.2125C14.0375 27.599 13.8516 27.923 13.6153 28.1957L15.0522 29.441C15.4595 28.971 15.7638 28.4285 15.9692 27.8246L14.1689 27.2125ZM13.6146 28.1964C13.3884 28.458 13.1149 28.664 12.784 28.8167L13.5809 30.5432C14.1512 30.2799 14.6452 29.9116 15.0528 29.4403L13.6146 28.1964ZM12.7883 28.8148C12.4839 28.9534 12.1164 29.0338 11.6672 29.0338V30.9352C12.347 30.9352 12.9897 30.8125 13.5766 30.5451L12.7883 28.8148ZM11.6672 29.0338C11.2183 29.0338 10.8467 28.9535 10.5351 28.8132L9.75404 30.5468C10.3437 30.8124 10.9872 30.9352 11.6672 30.9352V29.0338ZM10.543 28.8167C10.2108 28.6634 9.9328 28.4558 9.70018 28.1909L8.27159 29.4458C8.68269 29.9138 9.17714 30.2805 9.74617 30.5432L10.543 28.8167ZM9.70909 28.2012C9.47574 27.9278 9.2905 27.6019 9.15811 27.2125L7.35787 27.8246C7.56218 28.4255 7.86221 28.9662 8.26268 29.4355L9.70909 28.2012ZM9.15811 27.2125C9.02666 26.8259 8.95617 26.3932 8.95617 25.9068H7.05473C7.05473 26.5791 7.15259 27.2208 7.35787 27.8246L9.15811 27.2125ZM8.42882 25.7359V25.9068H10.3303V25.7359H8.42882ZM8.42882 25.9068C8.42882 26.3826 8.4847 26.8435 8.60141 27.2858L10.4399 26.8006C10.3685 26.5298 10.3303 26.2331 10.3303 25.9068H8.42882ZM8.60226 27.289C8.72173 27.7354 8.90586 28.149 9.16185 28.5195L10.7262 27.4386C10.6059 27.2645 10.5078 27.0541 10.4391 26.7974L8.60226 27.289ZM9.1685 28.529C9.44289 28.9159 9.7904 29.2288 10.2052 29.4577L11.1238 27.7928C10.9642 27.7048 10.8314 27.5868 10.7196 27.4291L9.1685 28.529ZM10.2164 29.4637C10.6633 29.7026 11.1564 29.8062 11.6672 29.8062V27.9048C11.4155 27.9048 11.2402 27.8549 11.1127 27.7868L10.2164 29.4637ZM11.6672 29.8062C12.175 29.8062 12.6655 29.7018 13.1093 29.4604L12.2009 27.7901C12.0802 27.8557 11.9122 27.9048 11.6672 27.9048V29.8062ZM13.1144 29.4577C13.5316 29.2275 13.8794 28.9117 14.1503 28.5195L12.5859 27.4386C12.4806 27.5911 12.353 27.7061 12.1958 27.7928L13.1144 29.4577ZM14.1503 28.5195C14.4063 28.149 14.5904 27.7354 14.7099 27.289L12.8731 26.7974C12.8044 27.0541 12.7063 27.2645 12.5859 27.4386L14.1503 28.5195ZM14.7075 27.2976C14.8314 26.8516 14.8908 26.3867 14.8908 25.9068H12.9893C12.9893 26.229 12.9496 26.5217 12.8755 26.7887L14.7075 27.2976ZM14.8908 25.9068V25.7359H12.9893V25.9068H14.8908ZM14.8908 25.7359C14.8908 25.26 14.8312 24.7988 14.7066 24.3566L12.8764 24.8722C12.9499 25.1331 12.9893 25.4196 12.9893 25.7359H14.8908ZM14.7108 24.3718C14.5906 23.9165 14.4018 23.4957 14.1362 23.1212L12.5852 24.221C12.7058 24.3911 12.8042 24.5992 12.8722 24.857L14.7108 24.3718ZM14.1474 23.1372C13.877 22.7388 13.5282 22.4174 13.1069 22.185L12.1884 23.8499C12.3415 23.9344 12.468 24.0488 12.574 24.2049L14.1474 23.1372ZM13.1131 22.1884C12.6653 21.937 12.1675 21.8291 11.6524 21.8291V23.7305C11.8998 23.7305 12.0655 23.781 12.1822 23.8465L13.1131 22.1884ZM11.6524 21.8291C11.1393 21.8291 10.6452 21.9382 10.1978 22.185L11.1164 23.8499C11.2434 23.7798 11.4127 23.7305 11.6524 23.7305V21.8291ZM10.1917 22.1884C9.77875 22.4203 9.43529 22.738 9.16387 23.1277L10.7242 24.2144C10.839 24.0496 10.9709 23.9316 11.1225 23.8465L10.1917 22.1884ZM9.16185 23.1307C8.90438 23.5033 8.72041 23.9209 8.60141 24.3718L10.4399 24.857C10.5091 24.5949 10.6074 24.3835 10.7262 24.2115L9.16185 23.1307ZM8.60226 24.3686C8.48492 24.8071 8.42882 25.2641 8.42882 25.7359H10.3303C10.3303 25.4155 10.3682 25.1248 10.4391 24.8602L8.60226 24.3686ZM18.4189 23.5151H19.3696V23.4945L19.3687 23.474L18.4189 23.5151ZM18.4189 29.8359V30.7867H19.3696V29.8359H18.4189ZM17.0448 29.8359H16.094V30.7867H17.0448V29.8359ZM17.0448 21.7993V20.8486H16.094V21.7993H17.0448ZM18.3446 21.7993L19.2944 21.7582L19.255 20.8486H18.3446V21.7993ZM18.092 25.5131L18.055 26.4631L19.0428 26.5016V25.5131H18.092ZM17.5201 25.4908L16.5694 25.4823L16.5611 26.4049L17.4831 26.4408L17.5201 25.4908ZM17.7652 23.9682L18.6652 24.2746L18.6662 24.2717L17.7652 23.9682ZM19.4587 21.9405L19.8666 22.7992L19.8711 22.7971L19.4587 21.9405ZM21.8578 21.8142L21.5487 22.7134L21.5614 22.7175L21.8578 21.8142ZM22.6674 22.3193L21.9806 22.9768L21.988 22.9843L22.6674 22.3193ZM23.1873 23.2254L22.2818 23.5152L22.283 23.5187L23.1873 23.2254ZM23.3656 29.8359V30.7867H24.3163V29.8359H23.3656ZM21.9841 29.8359H21.0333V30.7867H21.9841V29.8359ZM21.7984 23.5448L20.9415 23.9568L20.9447 23.9633L21.7984 23.5448ZM21.2562 22.9877L20.831 23.8381L20.8381 23.8417L20.8453 23.8451L21.2562 22.9877ZM19.4439 23.0249L19.0127 22.1775L19.0067 22.1806L19.4439 23.0249ZM18.7234 23.6191L17.9824 23.0234L17.9753 23.0324L18.7234 23.6191ZM18.2554 24.4881L17.3576 24.1752L17.3549 24.1833L18.2554 24.4881ZM17.4681 23.5151V29.8359H19.3696V23.5151H17.4681ZM18.4189 28.8852H17.0448V30.7867H18.4189V28.8852ZM17.9955 29.8359V21.7993H16.094V29.8359H17.9955ZM17.0448 22.7501H18.3446V20.8486H17.0448V22.7501ZM17.3947 21.8405L17.469 23.5562L19.3687 23.474L19.2944 21.7582L17.3947 21.8405ZM18.1291 24.5631L17.5571 24.5408L17.4831 26.4408L18.055 26.4631L18.1291 24.5631ZM18.4708 25.4994C18.475 25.0393 18.543 24.6335 18.6652 24.2746L16.8652 23.6618C16.6705 24.2338 16.5752 24.8431 16.5694 25.4823L18.4708 25.4994ZM18.6662 24.2717C18.7913 23.9004 18.9603 23.5972 19.1658 23.3492L17.7016 22.1361C17.3327 22.5813 17.0561 23.0951 16.8642 23.6647L18.6662 24.2717ZM19.1658 23.3492C19.367 23.1064 19.599 22.9264 19.8666 22.7992L19.0508 21.0817C18.5262 21.3309 18.0748 21.6857 17.7016 22.1361L19.1658 23.3492ZM19.8711 22.7971C20.1323 22.6713 20.4327 22.6015 20.7882 22.6015V20.7001C20.1732 20.7001 19.5873 20.8234 19.0463 21.0839L19.8711 22.7971ZM20.7882 22.6015C21.0979 22.6015 21.3475 22.6441 21.5487 22.7133L22.1669 20.9151C21.7343 20.7664 21.2709 20.7001 20.7882 20.7001V22.6015ZM21.5614 22.7175C21.7354 22.7746 21.8697 22.8608 21.9807 22.9768L23.3541 21.6618C23.0195 21.3123 22.614 21.0617 22.1542 20.9109L21.5614 22.7175ZM21.988 22.9843C22.0937 23.0923 22.1993 23.2572 22.2818 23.5152L24.0928 22.9357C23.9377 22.4509 23.6967 22.0117 23.3469 21.6543L21.988 22.9843ZM22.283 23.5187C22.362 23.7623 22.4149 24.105 22.4149 24.5698H24.3163C24.3163 23.975 24.2504 23.4214 24.0917 22.9321L22.283 23.5187ZM22.4149 24.5698V29.8359H24.3163V24.5698H22.4149ZM23.3656 28.8852H21.9841V30.7867H23.3656V28.8852ZM22.9348 29.8359V24.555H21.0333V29.8359H22.9348ZM22.9348 24.555C22.9348 24.0549 22.8635 23.5576 22.6521 23.1263L20.9447 23.9633C20.9809 24.0371 21.0333 24.2132 21.0333 24.555H22.9348ZM22.6552 23.1329C22.4462 22.698 22.1165 22.3458 21.667 22.1304L20.8453 23.8451C20.8712 23.8575 20.903 23.8767 20.9415 23.9568L22.6552 23.1329ZM21.6814 22.1374C21.2777 21.9356 20.8307 21.8588 20.3797 21.8588V23.7602C20.622 23.7602 20.7592 23.8022 20.831 23.8381L21.6814 22.1374ZM20.3797 21.8588C19.9003 21.8588 19.4389 21.9607 19.0127 22.1775L19.875 23.8722C20.0133 23.8019 20.1758 23.7602 20.3797 23.7602V21.8588ZM19.0067 22.1806C18.6075 22.3874 18.2651 22.6718 17.9824 23.0234L19.4644 24.2148C19.5877 24.0613 19.7256 23.9496 19.8811 23.8691L19.0067 22.1806ZM17.9753 23.0324C17.7077 23.3735 17.5033 23.7573 17.3577 24.1753L19.1532 24.801C19.2353 24.5653 19.3429 24.3697 19.4715 24.2058L17.9753 23.0324ZM17.3549 24.1833C17.2107 24.6095 17.1413 25.0546 17.1413 25.5131H19.0428C19.0428 25.2487 19.0823 25.0105 19.156 24.7929L17.3549 24.1833ZM26.9457 18.4272H27.8964V17.4765H26.9457V18.4272ZM26.9457 29.8359V30.7867H27.8964V29.8359H26.9457ZM25.5641 29.8359H24.6134V30.7867H25.5641V29.8359ZM25.5641 18.4272V17.4765H24.6134V18.4272H25.5641ZM25.9949 18.4272V29.8359H27.8964V18.4272H25.9949ZM26.9457 28.8852H25.5641V30.7867H26.9457V28.8852ZM26.5149 29.8359V18.4272H24.6134V29.8359H26.5149ZM25.5641 19.378H26.9457V17.4765H25.5641V19.378ZM30.6446 21.7993H31.5953V20.8486H30.6446V21.7993ZM30.6446 29.8359V30.7867H31.5953V29.8359H30.6446ZM29.2631 29.8359H28.3123V30.7867H29.2631V29.8359ZM29.2631 21.7993V20.8486H28.3123V21.7993H29.2631ZM29.3596 19.1031L28.6541 18.4659L28.6483 18.4723L28.6427 18.4787L29.3596 19.1031ZM30.5703 19.1031L29.8648 19.7404L29.8703 19.7466L29.876 19.7526L30.5703 19.1031ZM30.5703 20.2173L29.876 19.5678L29.8753 19.5686L30.5703 20.2173ZM29.3596 20.2173L28.6427 20.8417L28.6534 20.854L28.6646 20.866L29.3596 20.2173ZM29.6939 21.7993V29.8359H31.5953V21.7993H29.6939ZM30.6446 28.8852H29.2631V30.7867H30.6446V28.8852ZM30.2138 29.8359V21.7993H28.3123V29.8359H30.2138ZM29.2631 22.7501H30.6446V20.8486H29.2631V22.7501ZM30.1098 19.6676C30.1098 19.6522 30.1119 19.6584 30.1051 19.6777C30.1018 19.6868 30.0974 19.6965 30.0918 19.706C30.0862 19.7155 30.0807 19.7227 30.0765 19.7276L28.6427 18.4787C28.3435 18.8222 28.2083 19.2387 28.2083 19.6676H30.1098ZM30.0652 19.7404C30.0483 19.7591 30.0285 19.7763 30.007 19.7908C29.9856 19.8052 29.9664 19.8143 29.9521 19.8198C29.9244 19.8302 29.9241 19.8236 29.9687 19.8236V17.9222C29.5159 17.9222 29.0223 18.0582 28.6541 18.4659L30.0652 19.7404ZM29.9687 19.8236C30.0087 19.8236 30.0054 19.8296 29.9761 19.8184C29.9611 19.8126 29.9418 19.8033 29.9207 19.789C29.8996 19.7747 29.8806 19.758 29.8648 19.7404L31.2758 18.4659C30.911 18.0619 30.4228 17.9222 29.9687 17.9222V19.8236ZM29.876 19.7526C29.8674 19.7434 29.8535 19.7244 29.8436 19.6983C29.834 19.6733 29.835 19.6598 29.835 19.6676H31.7364C31.7364 19.2195 31.5835 18.7946 31.2646 18.4537L29.876 19.7526ZM29.835 19.6676C29.835 19.6652 29.8358 19.6455 29.8467 19.6178C29.8576 19.5899 29.8713 19.5729 29.876 19.5678L31.2646 20.8668C31.5753 20.5346 31.7364 20.1183 31.7364 19.6676H29.835ZM29.8753 19.5686C29.8922 19.5504 29.9117 19.5339 29.9327 19.5202C29.9535 19.5065 29.9721 19.4979 29.9857 19.4929C30.0121 19.4831 30.0119 19.4894 29.9687 19.4894V21.3908C30.4135 21.3908 30.8981 21.2594 31.2653 20.866L29.8753 19.5686ZM29.9687 19.4894C29.921 19.4894 29.9179 19.4825 29.9425 19.4916C29.9554 19.4963 29.9739 19.5046 29.995 19.5184C30.0164 19.5324 30.0367 19.5494 30.0547 19.5686L28.6646 20.866C29.035 21.2629 29.5251 21.3908 29.9687 21.3908V19.4894ZM30.0765 19.5929C30.0828 19.6001 30.0941 19.6162 30.1023 19.6389C30.1104 19.6609 30.1098 19.6731 30.1098 19.6676H28.2083C28.2083 20.0986 28.3508 20.5066 28.6427 20.8417L30.0765 19.5929ZM34.2247 23.5151H35.1754V23.4945L35.1745 23.474L34.2247 23.5151ZM34.2247 29.8359V30.7867H35.1754V29.8359H34.2247ZM32.8506 29.8359H31.8998V30.7867H32.8506V29.8359ZM32.8506 21.7993V20.8486H31.8998V21.7993H32.8506ZM34.1504 21.7993L35.1002 21.7582L35.0608 20.8486H34.1504V21.7993ZM33.8978 25.5131L33.8608 26.4631L34.8486 26.5016V25.5131H33.8978ZM33.3259 25.4908L32.3752 25.4823L32.3669 26.4049L33.2889 26.4408L33.3259 25.4908ZM33.571 23.9682L34.471 24.2746L34.472 24.2717L33.571 23.9682ZM35.2645 21.9405L35.6724 22.7992L35.6769 22.7971L35.2645 21.9405ZM37.6636 21.8142L37.3545 22.7134L37.3672 22.7175L37.6636 21.8142ZM38.4732 22.3193L37.7864 22.9768L37.7938 22.9843L38.4732 22.3193ZM38.9931 23.2254L38.0876 23.5152L38.0888 23.5187L38.9931 23.2254ZM39.1714 29.8359V30.7867H40.1221V29.8359H39.1714ZM37.7899 29.8359H36.8391V30.7867H37.7899V29.8359ZM37.6042 23.5448L36.7473 23.9568L36.7505 23.9633L37.6042 23.5448ZM37.062 22.9877L36.6368 23.8381L36.6439 23.8417L36.6511 23.8451L37.062 22.9877ZM35.2497 23.0249L34.8185 22.1775L34.8125 22.1806L35.2497 23.0249ZM34.5292 23.6191L33.7882 23.0234L33.7811 23.0324L34.5292 23.6191ZM34.0612 24.4881L33.1634 24.1752L33.1607 24.1833L34.0612 24.4881ZM33.2739 23.5151V29.8359H35.1754V23.5151H33.2739ZM34.2247 28.8852H32.8506V30.7867H34.2247V28.8852ZM33.8013 29.8359V21.7993H31.8998V29.8359H33.8013ZM32.8506 22.7501H34.1504V20.8486H32.8506V22.7501ZM33.2005 21.8405L33.2748 23.5562L35.1745 23.474L35.1002 21.7582L33.2005 21.8405ZM33.9349 24.5631L33.3629 24.5408L33.2889 26.4408L33.8608 26.4631L33.9349 24.5631ZM34.2766 25.4994C34.2808 25.0393 34.3488 24.6335 34.471 24.2746L32.671 23.6618C32.4763 24.2338 32.381 24.8431 32.3752 25.4823L34.2766 25.4994ZM34.472 24.2717C34.5971 23.9004 34.7661 23.5972 34.9716 23.3492L33.5074 22.1361C33.1385 22.5813 32.8619 23.0951 32.67 23.6647L34.472 24.2717ZM34.9716 23.3492C35.1728 23.1064 35.4048 22.9264 35.6724 22.7992L34.8566 21.0817C34.332 21.3309 33.8806 21.6857 33.5074 22.1361L34.9716 23.3492ZM35.6769 22.7971C35.9381 22.6713 36.2385 22.6015 36.594 22.6015V20.7001C35.979 20.7001 35.3931 20.8234 34.8521 21.0839L35.6769 22.7971ZM36.594 22.6015C36.9037 22.6015 37.1533 22.6441 37.3545 22.7133L37.9727 20.9151C37.5401 20.7664 37.0767 20.7001 36.594 20.7001V22.6015ZM37.3672 22.7175C37.5412 22.7746 37.6755 22.8608 37.7865 22.9768L39.1599 21.6618C38.8253 21.3123 38.4198 21.0617 37.96 20.9109L37.3672 22.7175ZM37.7938 22.9843C37.8995 23.0923 38.0051 23.2572 38.0876 23.5152L39.8986 22.9357C39.7435 22.4509 39.5025 22.0117 39.1527 21.6543L37.7938 22.9843ZM38.0888 23.5187C38.1678 23.7623 38.2207 24.105 38.2207 24.5698H40.1221C40.1221 23.975 40.0562 23.4214 39.8975 22.9321L38.0888 23.5187ZM38.2207 24.5698V29.8359H40.1221V24.5698H38.2207ZM39.1714 28.8852H37.7899V30.7867H39.1714V28.8852ZM38.7406 29.8359V24.555H36.8391V29.8359H38.7406ZM38.7406 24.555C38.7406 24.0549 38.6693 23.5576 38.4579 23.1263L36.7505 23.9633C36.7867 24.0371 36.8391 24.2132 36.8391 24.555H38.7406ZM38.461 23.1329C38.252 22.698 37.9223 22.3458 37.4728 22.1304L36.6511 23.8451C36.677 23.8575 36.7088 23.8767 36.7473 23.9568L38.461 23.1329ZM37.4871 22.1374C37.0835 21.9356 36.6365 21.8588 36.1855 21.8588V23.7602C36.4278 23.7602 36.565 23.8022 36.6368 23.8381L37.4871 22.1374ZM36.1855 21.8588C35.7061 21.8588 35.2447 21.9607 34.8185 22.1775L35.6808 23.8722C35.8191 23.8019 35.9816 23.7602 36.1855 23.7602V21.8588ZM34.8125 22.1806C34.4133 22.3874 34.0709 22.6718 33.7882 23.0234L35.2702 24.2148C35.3935 24.0613 35.5314 23.9496 35.6868 23.8691L34.8125 22.1806ZM33.7811 23.0324C33.5135 23.3735 33.3091 23.7573 33.1635 24.1753L34.959 24.801C35.0411 24.5653 35.1487 24.3697 35.2773 24.2058L33.7811 23.0324ZM33.1607 24.1833C33.0165 24.6095 32.9471 25.0546 32.9471 25.5131H34.8486C34.8486 25.2487 34.8881 25.0105 34.9618 24.7929L33.1607 24.1833ZM43.0708 29.7022L42.6963 30.5762L42.7079 30.581L43.0708 29.7022ZM41.9047 28.8926L41.208 29.5396L41.213 29.5448L41.9047 28.8926ZM41.162 27.6597L40.2688 27.9853L41.162 27.6597ZM41.1917 24.0425L42.0808 24.3791L42.0819 24.3763L41.1917 24.0425ZM41.979 22.7352L41.283 22.0875L41.979 22.7352ZM43.108 21.9256L43.4874 22.7973L43.108 21.9256ZM45.9007 21.9479L45.492 22.8063L45.4959 22.8081L45.9007 21.9479ZM46.9332 22.7798L46.1726 23.3502L46.1764 23.3553L46.9332 22.7798ZM47.5274 24.0276L46.6091 24.2737L46.6097 24.2761L47.5274 24.0276ZM47.7205 26.2039V27.1546H48.6712V26.2039H47.7205ZM41.719 26.2039H40.7683V27.1546H41.719V26.2039ZM41.719 25.0823V24.1316H40.7683V25.0823H41.719ZM46.3464 25.0823V26.033H47.2971V25.0823H46.3464ZM46.3464 24.9783H47.2971V24.9519L47.2957 24.9256L46.3464 24.9783ZM46.1236 23.9385L45.2312 24.2666L45.2355 24.278L46.1236 23.9385ZM43.5536 22.9803L43.9724 23.8339L43.9788 23.8307L43.9852 23.8275L43.5536 22.9803ZM42.4395 27.1769L41.5311 27.4574L41.5336 27.4655L41.5362 27.4735L42.4395 27.1769ZM42.9074 28.0533L42.1664 28.6491L42.1735 28.6577L42.9074 28.0533ZM43.6576 28.6475L43.2382 29.5008L43.2439 29.5035L43.6576 28.6475ZM46.7846 27.7711L47.3761 27.0268L46.6161 26.4228L46.0281 27.1952L46.7846 27.7711ZM47.6165 28.4321L48.4098 28.956L48.8896 28.2295L48.208 27.6878L47.6165 28.4321ZM45.9676 29.7617L45.6301 28.8729L45.6263 28.8743L45.9676 29.7617ZM44.5935 29.0338C44.1417 29.0338 43.7597 28.9581 43.4338 28.8235L42.7079 30.581C43.2931 30.8227 43.9262 30.9352 44.5935 30.9352V29.0338ZM43.4454 28.8284C43.111 28.6851 42.8312 28.4894 42.5965 28.2404L41.213 29.5448C41.6319 29.9891 42.1295 30.3332 42.6963 30.5761L43.4454 28.8284ZM42.6014 28.2457C42.3717 27.9984 42.1881 27.6987 42.0552 27.334L40.2688 27.9853C40.4824 28.5714 40.794 29.0937 41.208 29.5396L42.6014 28.2457ZM42.0552 27.334C41.9241 26.9744 41.8527 26.5661 41.8527 26.0999H39.9513C39.9513 26.7627 40.0533 27.3942 40.2688 27.9853L42.0552 27.334ZM41.8527 26.0999V25.7879H39.9513V26.0999H41.8527ZM41.8527 25.7879C41.8527 25.2271 41.9356 24.7626 42.0808 24.3791L40.3026 23.7058C40.0615 24.3424 39.9513 25.0415 39.9513 25.7879H41.8527ZM42.0819 24.3763C42.237 23.9626 42.4381 23.6374 42.675 23.3829L41.283 22.0875C40.8564 22.546 40.5326 23.0923 40.3015 23.7086L42.0819 24.3763ZM42.675 23.3829C42.9233 23.1161 43.1935 22.9253 43.4874 22.7973L42.7285 21.0539C42.1806 21.2924 41.6983 21.6413 41.283 22.0875L42.675 23.3829ZM43.4874 22.7973C43.7909 22.6652 44.0977 22.6015 44.4152 22.6015V20.7001C43.8316 20.7001 43.2668 20.8196 42.7285 21.0539L43.4874 22.7973ZM44.4152 22.6015C44.8822 22.6015 45.2312 22.6821 45.492 22.8063L46.3095 21.0895C45.7383 20.8176 45.097 20.7001 44.4152 20.7001V22.6015ZM45.4959 22.8081C45.7827 22.9431 46.0025 23.1234 46.1726 23.3502L47.6937 22.2093C47.3291 21.7231 46.8606 21.3488 46.3056 21.0877L45.4959 22.8081ZM46.1764 23.3553C46.3603 23.597 46.5083 23.8977 46.6091 24.2737L48.4457 23.7815C48.289 23.1968 48.0409 22.6657 47.6899 22.2042L46.1764 23.3553ZM46.6097 24.2761C46.7136 24.6597 46.7698 25.0949 46.7698 25.5874H48.6712C48.6712 24.9509 48.5986 24.3463 48.445 23.7791L46.6097 24.2761ZM46.7698 25.5874V26.2039H48.6712V25.5874H46.7698ZM47.7205 25.2531H41.719V27.1546H47.7205V25.2531ZM42.6698 26.2039V25.0823H40.7683V26.2039H42.6698ZM41.719 26.033H46.3464V24.1316H41.719V26.033ZM47.2971 25.0823V24.9783H45.3957V25.0823H47.2971ZM47.2957 24.9256C47.2703 24.4699 47.1751 24.0266 47.0116 23.5989L45.2355 24.278C45.3295 24.5238 45.3828 24.7737 45.3971 25.0311L47.2957 24.9256ZM47.0159 23.6104C46.8341 23.1159 46.535 22.6936 46.1233 22.3642L44.9354 23.849C45.0684 23.9553 45.1655 24.0877 45.2312 24.2665L47.0159 23.6104ZM46.1233 22.3642C45.6318 21.971 45.0265 21.8291 44.4152 21.8291V23.7305C44.7448 23.7305 44.8822 23.8064 44.9354 23.849L46.1233 22.3642ZM44.4152 21.8291C43.9624 21.8291 43.5261 21.9274 43.1221 22.1332L43.9852 23.8275C44.1061 23.7659 44.2442 23.7305 44.4152 23.7305V21.8291ZM43.1349 22.1268C42.7219 22.3294 42.3807 22.6284 42.1101 22.9987L43.6453 24.1206C43.7511 23.9759 43.8605 23.8887 43.9724 23.8339L43.1349 22.1268ZM42.1101 22.9987C41.8424 23.3651 41.6524 23.788 41.524 24.2466L43.355 24.7593C43.4346 24.4752 43.5367 24.2693 43.6453 24.1206L42.1101 22.9987ZM41.524 24.2466C41.3915 24.7197 41.3328 25.2373 41.3328 25.7879H43.2343C43.2343 25.3681 43.2795 25.029 43.355 24.7593L41.524 24.2466ZM41.3328 25.7879V26.0999H43.2343V25.7879H41.3328ZM41.3328 26.0999C41.3328 26.5685 41.3969 27.0227 41.5311 27.4574L43.3479 26.8963C43.2742 26.6576 43.2343 26.3938 43.2343 26.0999H41.3328ZM41.5362 27.4735C41.6781 27.9054 41.8864 28.3007 42.1665 28.649L43.6484 27.4576C43.5224 27.3009 43.4188 27.1119 43.3428 26.8803L41.5362 27.4735ZM42.1735 28.6577C42.467 29.0141 42.8241 29.2972 43.2382 29.5008L44.077 27.7943C43.9068 27.7107 43.7638 27.5976 43.6413 27.4489L42.1735 28.6577ZM43.2439 29.5035C43.687 29.7177 44.1683 29.8137 44.6678 29.8137V27.9122C44.4145 27.9122 44.2224 27.8646 44.0713 27.7915L43.2439 29.5035ZM44.6678 29.8137C45.2818 29.8137 45.8685 29.6878 46.3828 29.3853L45.4187 27.7464C45.2596 27.84 45.0242 27.9122 44.6678 27.9122V29.8137ZM46.3828 29.3853C46.8329 29.1205 47.2189 28.7703 47.5411 28.3469L46.0281 27.1952C45.8453 27.4354 45.642 27.615 45.4187 27.7464L46.3828 29.3853ZM46.1931 28.5154L47.025 29.1765L48.208 27.6878L47.3761 27.0268L46.1931 28.5154ZM46.8232 27.9082C46.7012 28.093 46.5377 28.2816 46.3238 28.4717L47.5871 29.8929C47.9079 29.6077 48.1852 29.2962 48.4098 28.956L46.8232 27.9082ZM46.3238 28.4717C46.1561 28.6208 45.9312 28.7585 45.6301 28.8729L46.3051 30.6505C46.7863 30.4677 47.22 30.2192 47.5871 29.8929L46.3238 28.4717ZM45.6263 28.8743C45.3748 28.9711 45.0379 29.0338 44.5935 29.0338V30.9352C45.2088 30.9352 45.788 30.8494 46.3089 30.649L45.6263 28.8743Z" fill="#FE9013"/>
</svg>
